<svg xmlns="http://www.w3.org/2000/svg" width="225" height="225" fill="none" class="h-auto w-full"><g fill="#E0E0E0" clip-path="url(#clip0_2833_44487)"><path fill-rule="evenodd" d="M70.788 133.637c5.88 0 17.579-.332 33.749-7.157 18.843-7.955 56.332-22.395 83.376-37.226 18.914-10.374 27.204-24.094 27.204-42.57C215.118 21.04 194.843.251 169.833.251H65.046C29.122.252 0 30.111 0 66.944c0 36.833 27.267 66.693 70.788 66.693ZM88.509 179.584c0-18.055 10.6-34.334 26.865-41.255l33-14.042c33.379-14.204 70.119 10.947 70.119 48.003 0 28.708-22.702 51.979-50.702 51.971l-35.73-.01c-24.055-.006-43.552-20.002-43.552-44.667Z" clip-rule="evenodd" style="--darkreader-inline-fill:#373738"/><path d="M37.497 142.404C16.786 142.404 0 159.617 0 180.85v4.979c0 21.233 16.788 38.446 37.496 38.446 20.71 0 37.497-17.213 37.497-38.446v-4.979c0-21.233-16.787-38.446-37.496-38.446Z" style="--darkreader-inline-fill:#373738"/></g></svg>