<svg width="1440" height="660" viewBox="0 0 1440 660" fill="none" xmlns="http://www.w3.org/2000/svg">
<g clip-path="url(#clip0_339_392)">
<mask id="mask0_339_392" style="mask-type:luminance" maskUnits="userSpaceOnUse" x="0" y="0" width="1440" height="660">
<path d="M0 0H1440V660H0V0Z" fill="white"/>
</mask>
<g mask="url(#mask0_339_392)">
<path d="M1308.56 197.802V131.868H1373.95V197.802M1308.56 197.802H1373.95M1308.56 197.802V263.736M1373.95 197.802V263.736M1373.95 197.802H1439.35V263.736H1373.95M1373.95 395.604H1308.56M1373.95 395.604V461.538M1373.95 395.604H1439.35V461.538H1373.95M1308.56 395.604V461.538M1308.56 395.604H1243.16M1308.56 395.604V329.67M1308.56 461.538H1373.95M1308.56 461.538V527.472M1308.56 461.538H1243.16M1373.95 461.538V527.472H1308.56M981.58 395.604H916.185M981.58 395.604V461.538M981.58 395.604H1046.98M916.185 395.604V461.538M916.185 395.604H850.79M916.185 395.604V329.67M916.185 461.538H981.58M916.185 461.538V527.472M916.185 461.538H850.79M981.58 461.538V527.472M981.58 461.538H1046.98M1177.77 131.868H1112.37V197.802M1177.77 131.868V197.802M1177.77 131.868V65.9341M1177.77 131.868H1243.16V65.9341H1177.77M1112.37 197.802H1177.77M1112.37 197.802V263.736M1177.77 197.802V263.736M1177.77 197.802H1243.16V263.736M1177.77 65.9341H1112.37V0H1177.77V65.9341ZM1373.95 263.736H1308.56M1373.95 263.736V329.67H1308.56M1308.56 263.736V329.67M1308.56 263.736H1243.16M1308.56 329.67H1243.16M981.58 263.736H916.185V329.67M981.58 263.736V329.67M981.58 263.736H1046.98M981.58 263.736V197.802H1046.98V263.736M916.185 329.67H981.58M916.185 329.67H850.79V395.604M981.58 329.67H1046.98M1177.77 263.736H1112.37M1177.77 263.736V329.67M1177.77 263.736H1243.16M1112.37 263.736V329.67M1112.37 263.736H1046.98M1112.37 329.67H1177.77M1112.37 329.67H1046.98M1112.37 329.67V395.604M1177.77 329.67H1243.16M1177.77 329.67V395.604M1177.77 527.472H1112.37M1177.77 527.472V593.407M1177.77 527.472V461.538M1177.77 527.472H1243.16M1112.37 527.472V593.407M1112.37 527.472V461.538M1112.37 527.472H1046.98M1112.37 593.407H1177.77M1112.37 593.407V659.341M1112.37 593.407H1046.98M1177.77 593.407V659.341H1112.37M1177.77 593.407H1243.16V527.472M1308.56 527.472H1243.16M916.185 527.472H981.58M916.185 527.472H850.79M981.58 527.472H1046.98M981.58 527.472V593.407H1046.98M1177.77 461.538H1112.37M1177.77 461.538V395.604M1177.77 461.538H1243.16M1112.37 461.538H1046.98M1112.37 461.538V395.604M1112.37 659.341H1046.98V593.407M785.395 593.407H720M785.395 593.407V659.341H720V593.407M785.395 593.407V527.472H850.79M785.395 593.407H850.79V527.472M720 593.407H654.605M720 593.407V527.472H654.605M1243.16 395.604V461.538M1243.16 395.604V329.67M1243.16 395.604H1177.77M1243.16 461.538V527.472M850.79 395.604V461.538M850.79 395.604H785.395M850.79 461.538V527.472M850.79 461.538H785.395M850.79 197.802V131.868H916.185V197.802H850.79ZM850.79 197.802H785.395V263.736H850.79V197.802ZM66.049 329.67V263.736H131.444V329.67M66.049 329.67H131.444M66.049 329.67H0.65395V395.604M66.049 329.67V395.604M131.444 329.67H196.839V395.604M131.444 329.67V395.604M1112.37 395.604H1046.98M1046.98 395.604V461.538M1046.98 395.604V329.67M1046.98 461.538V527.472M1243.16 263.736V329.67M1046.98 263.736V329.67M1046.98 527.472V593.407M654.605 527.472V593.407M654.605 527.472H589.21M654.605 527.472V461.538M654.605 593.407H589.21M654.605 593.407V659.341H589.21M785.395 395.604V461.538M785.395 395.604H720V461.538H785.395M589.21 395.604H523.815M589.21 395.604V461.538M589.21 395.604V329.67M589.21 395.604H654.605M523.815 395.604V461.538M523.815 395.604V329.67H589.21M523.815 461.538H589.21M523.815 461.538V527.472M523.815 461.538H458.42M589.21 461.538V527.472M589.21 461.538H654.605M523.815 527.472H589.21M523.815 527.472H458.42M589.21 527.472V593.407M589.21 593.407H523.815V659.341H589.21M589.21 593.407V659.341M589.21 329.67H654.605V395.604M393.025 593.407H327.629M393.025 593.407V659.341H327.629V593.407M393.025 593.407V527.472H458.42M393.025 593.407H458.42V527.472M327.629 593.407H262.234M327.629 593.407V527.472H262.234M262.234 527.472V593.407M262.234 527.472H196.839M262.234 527.472V461.538M262.234 593.407H196.839M262.234 593.407V659.341H196.839V593.407M458.42 461.538V527.472M458.42 461.538H393.025V395.604H458.42V461.538ZM196.839 395.604H262.234V461.538M196.839 395.604V461.538M196.839 395.604H131.444M196.839 461.538H262.234M196.839 461.538V527.472M196.839 461.538H131.444M196.839 527.472H131.444M196.839 527.472V593.407M131.444 461.538H66.049M131.444 461.538V527.472M131.444 461.538V395.604M66.049 461.538V527.472M66.049 461.538H0.65395M66.049 461.538V395.604M66.049 527.472H131.444M66.049 527.472H0.65395V461.538M131.444 527.472V593.407H196.839M0.65395 461.538V395.604M66.049 395.604H0.65395M654.605 395.604V461.538M1439.35 593.407H1373.95V659.341H1439.35V593.407ZM1046.98 65.9341H981.58V131.868H1046.98V65.9341ZM66.049 593.407H0.65395V659.341H66.049V593.407Z" stroke="#232528" stroke-dasharray="0.33 0.33"/>
</g>
</g>
<defs>
<clipPath id="clip0_339_392">
<rect width="1440" height="660" fill="white"/>
</clipPath>
</defs>
</svg>
