<svg width="194" height="187" viewBox="0 0 194 187" fill="none" xmlns="http://www.w3.org/2000/svg">
<path d="M2 93.254C2 117.456 11.6142 140.667 28.7277 157.78C45.8411 174.894 69.052 184.508 93.254 184.508C117.456 184.508 140.667 174.894 157.78 157.78C174.894 140.667 184.508 117.456 184.508 93.254C184.508 69.052 174.894 45.8411 157.78 28.7277C140.667 11.6142 117.456 2 93.254 2C69.052 2 45.8411 11.6142 28.7277 28.7277C11.6142 45.8411 2 69.052 2 93.254Z" stroke="#45413C" stroke-opacity="0.7" stroke-width="4" stroke-linecap="round" stroke-linejoin="round"/>
<path d="M135.404 150.849H50.538C49.0181 150.849 47.5605 150.245 46.4857 149.17C45.411 148.095 44.8072 146.638 44.8072 145.118V35.2275C44.8078 33.6432 45.4376 32.1241 46.558 31.0041C47.6785 29.8841 49.1979 29.2549 50.7821 29.2549H135.158C135.942 29.2546 136.719 29.4088 137.444 29.7089C138.169 30.0089 138.828 30.4488 139.383 31.0034C139.937 31.558 140.378 32.2166 140.678 32.9413C140.978 33.6661 141.133 34.4429 141.133 35.2275V145.118C141.133 146.637 140.529 148.095 139.455 149.169C138.381 150.244 136.924 150.848 135.404 150.849Z" fill="#DEBB7E"/>
<path d="M135.158 29.2549H50.7798C49.1955 29.2549 47.6762 29.8841 46.5557 31.0041C45.4353 32.1241 44.8055 33.6432 44.8049 35.2275V43.4677C44.8049 41.7923 45.4705 40.1855 46.6551 39.0009C47.8398 37.8162 49.4466 37.1506 51.122 37.1506H134.816C136.491 37.1506 138.098 37.8162 139.282 39.0009C140.467 40.1855 141.133 41.7923 141.133 43.4677V35.2275C141.133 34.4429 140.978 33.6661 140.678 32.9413C140.378 32.2166 139.937 31.558 139.383 31.0034C138.828 30.4488 138.169 30.0089 137.444 29.7089C136.719 29.4088 135.942 29.2546 135.158 29.2549Z" fill="#F0D5A8"/>
<path d="M135.404 150.849H50.538C49.0181 150.849 47.5605 150.245 46.4857 149.17C45.411 148.095 44.8072 146.638 44.8072 145.118V35.2275C44.8078 33.6432 45.4376 32.1241 46.558 31.0041C47.6785 29.8841 49.1979 29.2549 50.7821 29.2549H135.158C135.942 29.2546 136.719 29.4088 137.444 29.7089C138.169 30.0089 138.828 30.4488 139.383 31.0034C139.937 31.558 140.378 32.2166 140.678 32.9413C140.978 33.6661 141.133 34.4429 141.133 35.2275V145.118C141.133 146.637 140.529 148.095 139.455 149.169C138.381 150.244 136.924 150.848 135.404 150.849Z" stroke="#45413C" stroke-width="4" stroke-linecap="round" stroke-linejoin="round"/>
<path d="M54.2795 38.7227H131.656V141.365H54.2795V38.7227Z" fill="white" stroke="#45413C" stroke-width="4" stroke-linecap="round" stroke-linejoin="round"/>
<path d="M65.3122 63.9912H113.56" stroke="#45413C" stroke-width="4" stroke-linecap="round" stroke-linejoin="round"/>
<path d="M65.3122 78.2031H113.56" stroke="#45413C" stroke-width="4" stroke-linecap="round" stroke-linejoin="round"/>
<path d="M65.3122 93.9932H98.9393" stroke="#45413C" stroke-width="4" stroke-linecap="round" stroke-linejoin="round"/>
<path d="M71.3576 24.5108H114.58C115.34 24.5108 116.069 24.8126 116.606 25.35C117.144 25.8874 117.445 26.6162 117.445 27.3761V42.173C117.445 42.9335 117.143 43.6629 116.606 44.2007C116.068 44.7385 115.338 45.0406 114.578 45.0406H71.3599C70.9825 45.0418 70.6087 44.9685 70.2597 44.825C69.9107 44.6814 69.5935 44.4704 69.3263 44.2039C69.059 43.9375 68.847 43.621 68.7023 43.2725C68.5576 42.924 68.4831 42.5503 68.4831 42.173V27.3761C68.4831 26.9991 68.5575 26.6257 68.7021 26.2775C68.8467 25.9292 69.0585 25.613 69.3256 25.3468C69.5926 25.0806 69.9096 24.8697 70.2583 24.7262C70.607 24.5828 70.9806 24.5096 71.3576 24.5108Z" fill="#E8F4FA"/>
<path d="M114.578 24.5108H71.3599C70.9825 24.5096 70.6087 24.5828 70.2597 24.7264C69.9107 24.87 69.5935 25.081 69.3263 25.3474C69.059 25.6138 68.847 25.9304 68.7023 26.2789C68.5576 26.6274 68.4831 27.0011 68.4831 27.3784V33.9943C68.4831 33.1563 68.816 32.3527 69.4086 31.7601C70.0011 31.1676 70.8048 30.8347 71.6428 30.8347H114.288C115.126 30.8353 115.929 31.1684 116.521 31.7609C117.113 32.3534 117.445 33.1567 117.445 33.9943V27.3784C117.445 26.6179 117.143 25.8885 116.606 25.3507C116.068 24.8129 115.338 24.5108 114.578 24.5108Z" fill="white"/>
<path d="M71.3576 24.5108H114.58C115.34 24.5108 116.069 24.8126 116.606 25.35C117.144 25.8874 117.445 26.6162 117.445 27.3761V42.173C117.445 42.9335 117.143 43.6629 116.606 44.2007C116.068 44.7385 115.338 45.0406 114.578 45.0406H71.3599C70.9825 45.0418 70.6087 44.9685 70.2597 44.825C69.9107 44.6814 69.5935 44.4704 69.3263 44.2039C69.059 43.9375 68.847 43.621 68.7023 43.2725C68.5576 42.924 68.4831 42.5503 68.4831 42.173V27.3761C68.4831 26.9991 68.5575 26.6257 68.7021 26.2775C68.8467 25.9292 69.0585 25.613 69.3256 25.3468C69.5926 25.0806 69.9096 24.8697 70.2583 24.7262C70.607 24.5828 70.9806 24.5096 71.3576 24.5108Z" stroke="#45413C" stroke-width="4" stroke-linecap="round" stroke-linejoin="round"/>
<path d="M79.5454 38.7227H106.392" stroke="#45413C" stroke-width="4" stroke-linecap="round" stroke-linejoin="round"/>
<path d="M85.8623 22.9377C85.8623 25.0318 86.6942 27.0401 88.1749 28.5209C89.6557 30.0016 91.664 30.8335 93.7581 30.8335C95.8522 30.8335 97.8605 30.0016 99.3412 28.5209C100.822 27.0401 101.654 25.0318 101.654 22.9377C101.654 20.8437 100.822 18.8353 99.3412 17.3546C97.8605 15.8739 95.8522 15.042 93.7581 15.042C91.664 15.042 89.6557 15.8739 88.1749 17.3546C86.6942 18.8353 85.8623 20.8437 85.8623 22.9377Z" fill="#E8F4FA"/>
<path d="M93.7581 21.3551C95.2935 21.3559 96.7953 21.8047 98.0794 22.6463C99.3635 23.488 100.374 24.6859 100.988 26.0934C101.515 24.8917 101.735 23.5773 101.627 22.2692C101.519 20.9612 101.087 19.7007 100.369 18.6018C99.6512 17.5029 98.6709 16.6002 97.5167 15.9754C96.3624 15.3506 95.0706 15.0234 93.7581 15.0234C92.4456 15.0234 91.1538 15.3506 89.9995 15.9754C88.8453 16.6002 87.865 17.5029 87.1473 18.6018C86.4296 19.7007 85.9972 20.9612 85.8891 22.2692C85.7811 23.5773 86.0008 24.8917 86.5285 26.0934C87.1419 24.6859 88.1527 23.488 89.4368 22.6463C90.7209 21.8047 92.2227 21.3559 93.7581 21.3551Z" fill="white"/>
<path d="M85.8623 22.9377C85.8623 25.0318 86.6942 27.0401 88.1749 28.5209C89.6557 30.0016 91.664 30.8335 93.7581 30.8335C95.8522 30.8335 97.8605 30.0016 99.3412 28.5209C100.822 27.0401 101.654 25.0318 101.654 22.9377C101.654 20.8437 100.822 18.8353 99.3412 17.3546C97.8605 15.8739 95.8522 15.042 93.7581 15.042C91.664 15.042 89.6557 15.8739 88.1749 17.3546C86.6942 18.8353 85.8623 20.8437 85.8623 22.9377Z" stroke="#45413C" stroke-width="4" stroke-linecap="round" stroke-linejoin="round"/>
<path opacity="0.15" d="M131.658 73.8867L109.187 98.2287C107.769 99.7692 107.021 101.809 107.107 103.901C107.192 105.993 108.104 107.965 109.643 109.385C110.606 110.27 111.778 110.898 113.049 111.21L105.749 118.51L106.867 119.628L96.9998 129.492C96.5585 129.932 96.257 130.493 96.1331 131.104C96.0092 131.715 96.0685 132.348 96.3033 132.925C96.5382 133.503 96.9383 133.998 97.4535 134.348C97.9686 134.699 98.5759 134.89 99.199 134.897C99.429 134.896 99.6583 134.873 99.8834 134.826C108.53 132.987 112.928 130.332 112.978 126.924L113.576 126.326L115.81 128.559L121.333 123.038C121.722 123.351 122.14 123.627 122.581 123.862C124.034 124.634 125.693 124.933 127.324 124.718C128.956 124.502 130.48 123.783 131.683 122.66L131.658 73.8867Z" fill="#45413C"/>
<path d="M126.215 93.0153L153.876 103.334L165.511 84.6724L135.434 76.5508L126.215 93.0153Z" fill="#E2C634"/>
<path d="M170.314 124.511L191.735 103.09C191.818 103.007 191.907 102.931 192 102.861C184.83 96.6379 183.059 83.4699 169.271 76.2563C151.116 66.7773 128.663 69.0381 108.943 93.6653C108.121 94.7573 107.756 96.1258 107.924 97.482C108.092 98.8382 108.781 100.076 109.844 100.934C110.908 101.793 112.263 102.204 113.624 102.083C114.985 101.961 116.246 101.315 117.14 100.281C118.445 98.6637 119.757 97.1626 121.071 95.755C121.534 96.25 122.088 96.6505 122.704 96.9344C143.339 112.557 147.498 114.542 152.558 116.508C160.362 119.543 163.809 121.007 169.547 126.202C169.588 125.564 169.861 124.963 170.314 124.511ZM156.169 91.1649C154.429 93.2671 152.01 94.6951 149.329 95.2021C146.648 95.7091 143.874 95.2631 141.486 93.9413L129.29 88.352C136.41 83.1391 143.594 80.965 150.751 81.8981C156.838 82.6897 158.247 88.0737 156.176 91.1558L156.169 91.1649Z" fill="#FFDA8F"/>
<path d="M187.823 106.991L191.736 103.081C191.818 102.999 191.907 102.922 192 102.853C184.83 96.6291 183.06 83.4611 169.271 76.2475C151.116 66.7685 128.663 69.0293 108.943 93.6565C108.187 94.5987 107.776 95.7715 107.779 96.9798C107.781 98.1881 108.198 99.3589 108.959 100.297C109.111 100.008 109.29 99.7328 109.493 99.4762C129.215 74.8376 149.788 73.2749 168.105 82.4345C174.194 85.4756 182.364 99.8207 187.823 106.991Z" fill="#FFE9BD"/>
<path opacity="0.15" d="M58.2148 169.125C58.2148 170.173 61.8231 171.178 68.2457 171.919C74.6684 172.66 83.3794 173.076 92.4625 173.076C101.546 173.076 110.257 172.66 116.679 171.919C123.102 171.178 126.71 170.173 126.71 169.125C126.71 168.077 123.102 167.072 116.679 166.331C110.257 165.59 101.546 165.174 92.4625 165.174C83.3794 165.174 74.6684 165.59 68.2457 166.331C61.8231 167.072 58.2148 168.077 58.2148 169.125Z" fill="#45413C"/>
<path d="M70.1301 110.405C69.3134 111.221 68.7106 112.226 68.3751 113.331C68.0397 114.436 67.9819 115.607 68.207 116.739C68.4321 117.872 68.9331 118.931 69.6656 119.824C70.3981 120.716 71.3394 121.414 72.4062 121.856C73.473 122.298 74.6323 122.47 75.7814 122.357C76.9304 122.243 78.0338 121.848 78.9937 121.206C79.9536 120.565 80.7403 119.696 81.2842 118.677C81.8281 117.659 82.1124 116.522 82.1118 115.367V116.773C82.1118 118.262 82.7033 119.69 83.7562 120.743C84.8091 121.795 86.2372 122.387 87.7262 122.387C89.2152 122.387 90.6433 121.795 91.6962 120.743C92.7491 119.69 93.3406 118.262 93.3406 116.773C93.3406 117.51 93.4858 118.24 93.768 118.921C94.0501 119.602 94.4637 120.221 94.985 120.743C95.5064 121.264 96.1253 121.677 96.8065 121.96C97.4876 122.242 98.2177 122.387 98.955 122.387H103.16" stroke="#FF6242" stroke-width="4" stroke-linecap="round" stroke-linejoin="round"/>
<path d="M139.764 95.1698C140.455 95.2071 141.131 95.3802 141.755 95.6791C142.379 95.9781 142.938 96.397 143.4 96.912C143.862 97.427 144.218 98.028 144.448 98.6807C144.678 99.3333 144.777 100.025 144.739 100.716L143.813 117.826C143.737 119.221 143.111 120.529 142.071 121.462C141.03 122.395 139.662 122.877 138.267 122.801C136.872 122.726 135.564 122.099 134.631 121.059C133.698 120.019 133.216 118.651 133.291 117.256L134.218 100.145C134.294 98.7503 134.921 97.4424 135.961 96.5094C137.001 95.5764 138.368 95.0945 139.764 95.1698Z" fill="#E2C634" stroke="#45413C" stroke-width="4" stroke-linecap="round" stroke-linejoin="round"/>
<path d="M134.32 93.5259C135.554 94.1829 136.475 95.3027 136.883 96.6392C137.291 97.9757 137.151 99.4194 136.495 100.653L130.205 112.89C129.532 114.093 128.414 114.985 127.091 115.373C125.768 115.762 124.346 115.616 123.129 114.968C121.912 114.32 120.997 113.221 120.581 111.907C120.166 110.592 120.281 109.167 120.904 107.937L127.193 95.7C127.519 95.0892 127.961 94.5484 128.495 94.1085C129.029 93.6687 129.645 93.3384 130.307 93.1365C130.968 92.9346 131.663 92.865 132.352 92.9318C133.041 92.9987 133.71 93.2005 134.32 93.5259Z" fill="#E2C634" stroke="#45413C" stroke-width="4" stroke-linecap="round" stroke-linejoin="round"/>
<path d="M191.735 103.081C191.818 102.999 191.907 102.922 192 102.853C184.83 96.6291 183.059 83.4611 169.271 76.2475C151.116 66.7685 128.663 69.0293 108.943 93.6565C108.121 94.7485 107.756 96.117 107.924 97.4732C108.092 98.8294 108.781 100.067 109.844 100.926C110.908 101.784 112.263 102.196 113.624 102.074C114.985 101.952 116.246 101.306 117.14 100.272C118.445 98.6549 119.757 97.1538 121.071 95.7462C121.534 96.2412 122.088 96.6417 122.704 96.9257C143.339 112.548 147.498 114.533 152.558 116.5C160.362 119.534 163.809 120.998 169.547 126.193C169.587 125.553 169.86 124.95 170.314 124.498M156.169 91.1516C154.431 93.256 152.013 94.6867 149.331 95.1962C146.65 95.7057 143.875 95.2619 141.486 93.9416L129.29 88.3523C136.41 83.1395 143.594 80.9653 150.751 81.8984C156.838 82.69 158.241 88.0695 156.169 91.1516Z" stroke="#45413C" stroke-width="4" stroke-linecap="round" stroke-linejoin="round"/>
<path d="M151.613 92.1962L144.749 82.5279L166.136 67.3341C166.712 66.925 167.362 66.6332 168.05 66.4756C168.739 66.3179 169.451 66.2974 170.147 66.4152C170.843 66.533 171.51 66.7868 172.108 67.1621C172.706 67.5374 173.224 68.0268 173.633 68.6025L174.272 69.5014C174.681 70.077 174.972 70.7275 175.13 71.4158C175.287 72.1041 175.307 72.8167 175.189 73.5129C175.071 74.2091 174.817 74.8752 174.442 75.4731C174.066 76.0711 173.577 76.5892 173.001 76.9979L151.613 92.1962Z" fill="#FF6242"/>
<path d="M173.991 69.1294C173.975 69.1066 173.968 69.0838 173.952 69.0609C173.55 68.3697 173.001 67.7753 172.343 67.3198C171.686 66.8644 170.936 66.559 170.147 66.4253C169.359 66.2917 168.551 66.333 167.78 66.5464C167.009 66.7598 166.294 67.14 165.687 67.6602L144.749 82.5323L148.066 87.2L173.991 69.1294Z" fill="#FF866E"/>
<path d="M151.613 92.1962L144.749 82.5279L166.136 67.3341C166.712 66.925 167.362 66.6332 168.05 66.4756C168.739 66.3179 169.451 66.2974 170.147 66.4152C170.843 66.533 171.51 66.7868 172.108 67.1621C172.706 67.5374 173.224 68.0268 173.633 68.6025L174.272 69.5014C174.681 70.077 174.972 70.7275 175.13 71.4158C175.287 72.1041 175.307 72.8167 175.189 73.5129C175.071 74.2091 174.817 74.8752 174.442 75.4731C174.066 76.0711 173.577 76.5892 173.001 76.9979L151.613 92.1962Z" stroke="#45413C" stroke-width="4" stroke-linecap="round" stroke-linejoin="round"/>
<path d="M145.682 77.0277L160.713 66.3487C161.133 66.0382 161.611 65.8156 162.119 65.6942C162.626 65.5728 163.153 65.5552 163.668 65.6423C164.182 65.7294 164.674 65.9195 165.114 66.2013C165.553 66.483 165.931 66.8505 166.225 67.2818" stroke="#45413C" stroke-width="4" stroke-linecap="round" stroke-linejoin="round"/>
<path d="M111.115 109.662L100.552 117.165C100.32 117.328 100.147 117.562 100.058 117.831C99.9693 118.101 99.97 118.392 100.06 118.661C100.15 118.93 100.325 119.162 100.557 119.324C100.79 119.486 101.07 119.568 101.353 119.559C105.781 119.376 112.11 118.573 112.018 115.484L114.165 113.958L111.115 109.662Z" fill="#FCD269" stroke="#45413C" stroke-width="4" stroke-linecap="round" stroke-linejoin="round"/>
<path d="M114.929 115.026L111.115 109.658C110.916 109.374 110.837 109.023 110.895 108.682C110.953 108.34 111.143 108.035 111.425 107.833L116.795 104.019L122.134 111.547L116.766 115.361C116.623 115.46 116.462 115.53 116.293 115.566C116.123 115.603 115.948 115.606 115.778 115.575C115.607 115.544 115.444 115.479 115.299 115.385C115.153 115.291 115.027 115.169 114.929 115.026Z" fill="#DAEDF7"/>
<path d="M119.168 107.351L116.793 104.009L111.425 107.823C111.143 108.025 110.953 108.33 110.895 108.672C110.837 109.014 110.916 109.364 111.115 109.648L112.686 111.861L119.168 107.351Z" fill="#E8F4FA"/>
<path d="M114.929 115.026L111.115 109.658C110.916 109.374 110.837 109.023 110.895 108.682C110.953 108.34 111.143 108.035 111.425 107.833L116.795 104.019L122.134 111.547L116.766 115.361C116.623 115.46 116.462 115.53 116.293 115.566C116.123 115.603 115.948 115.606 115.778 115.575C115.607 115.544 115.444 115.479 115.299 115.385C115.153 115.291 115.027 115.169 114.929 115.026Z" stroke="#45413C" stroke-width="4" stroke-linecap="round" stroke-linejoin="round"/>
<path d="M121.372 110.447L117.557 105.079C117.153 104.51 116.992 103.803 117.108 103.114C117.225 102.425 117.611 101.811 118.18 101.406L144.749 82.5283L151.613 92.1921L125.045 111.07C124.475 111.475 123.768 111.636 123.079 111.519C122.391 111.403 121.776 111.017 121.372 110.447Z" fill="#FF6242"/>
<path d="M119.168 107.347L148.066 87.2005L144.748 82.5283L118.18 101.406C117.898 101.607 117.658 101.86 117.474 102.153C117.289 102.446 117.165 102.773 117.107 103.114C117.049 103.455 117.059 103.804 117.136 104.141C117.214 104.479 117.357 104.797 117.557 105.079L119.168 107.347Z" fill="#FF866E"/>
<path d="M121.372 110.447L117.557 105.079C117.153 104.51 116.992 103.803 117.108 103.114C117.225 102.425 117.611 101.811 118.18 101.406L144.749 82.5283L151.613 92.1921L125.045 111.07C124.475 111.475 123.768 111.636 123.079 111.519C122.391 111.403 121.776 111.017 121.372 110.447Z" stroke="#45413C" stroke-width="4" stroke-linecap="round" stroke-linejoin="round"/>
<path d="M156.176 91.1542C154.437 93.2595 152.017 94.6904 149.334 95.1992C146.651 95.7079 143.875 95.2623 141.486 93.9397L127.082 87.3535C126.45 87.0475 125.764 86.8707 125.063 86.8336C124.362 86.7964 123.661 86.8996 123.001 87.1371C122.34 87.3746 121.734 87.7416 121.218 88.2166C120.701 88.6916 120.284 89.265 119.992 89.9032C119.7 90.5413 119.539 91.2314 119.517 91.9329C119.495 92.6343 119.614 93.3331 119.866 93.9881C120.118 94.6431 120.498 95.2412 120.984 95.7473C121.47 96.2534 122.053 96.6572 122.697 96.9351C143.332 112.558 147.491 114.543 152.551 116.509" fill="#FFCEBF"/>
<path d="M128.734 94.2517L143.138 100.838C144.388 101.45 145.764 101.758 147.155 101.736C148.547 101.715 149.913 101.364 151.143 100.713C152.372 100.062 153.43 99.1287 154.23 97.9903C155.03 96.8519 155.549 95.5403 155.745 94.1627L156.176 91.1445C154.438 93.2506 152.018 94.6824 149.335 95.1919C146.652 95.7015 143.876 95.2567 141.486 93.9346L127.082 87.3483C125.88 86.7998 124.516 86.7231 123.261 87.1337C122.005 87.5442 120.95 88.4118 120.304 89.5643C119.659 90.7168 119.47 92.0699 119.776 93.355C120.082 94.64 120.86 95.7631 121.956 96.5011C122.593 95.3399 123.646 94.4627 124.903 94.0454C126.16 93.6282 127.529 93.7019 128.734 94.2517Z" fill="#FFDCD1"/>
<path d="M156.176 91.1542C154.437 93.2595 152.017 94.6904 149.334 95.1992C146.651 95.7079 143.875 95.2623 141.486 93.9397L127.082 87.3535C126.45 87.0475 125.764 86.8707 125.063 86.8336C124.362 86.7964 123.661 86.8996 123.001 87.1371C122.34 87.3746 121.734 87.7416 121.218 88.2166C120.701 88.6916 120.284 89.265 119.992 89.9032C119.7 90.5413 119.539 91.2314 119.517 91.9329C119.495 92.6343 119.614 93.3331 119.866 93.9881C120.118 94.6431 120.498 95.2412 120.984 95.7473C121.47 96.2534 122.053 96.6572 122.697 96.9351C143.332 112.558 147.491 114.543 152.551 116.509" stroke="#45413C" stroke-width="4" stroke-linecap="round" stroke-linejoin="round"/>
<path d="M156.176 91.1542C154.437 93.2595 152.017 94.6904 149.334 95.1992C146.651 95.7079 143.875 95.2623 141.486 93.9397L127.082 87.3535C126.45 87.0475 125.764 86.8707 125.063 86.8336C124.362 86.7964 123.661 86.8996 123.001 87.1371C122.34 87.3746 121.734 87.7416 121.218 88.2166C120.701 88.6916 120.284 89.265 119.992 89.9032C119.7 90.5413 119.539 91.2314 119.517 91.9329C119.495 92.6343 119.614 93.3331 119.866 93.9881C120.118 94.6431 120.498 95.2412 120.984 95.7473C121.47 96.2534 122.053 96.6572 122.697 96.9351C143.332 112.558 147.491 114.543 152.551 116.509" fill="#FFDA8F"/>
<path d="M128.734 94.2517L143.138 100.838C144.388 101.45 145.764 101.758 147.155 101.736C148.547 101.715 149.913 101.364 151.143 100.713C152.372 100.062 153.43 99.1287 154.23 97.9903C155.03 96.8519 155.549 95.5403 155.745 94.1627L156.176 91.1445C154.438 93.2506 152.018 94.6824 149.335 95.1919C146.652 95.7015 143.876 95.2567 141.486 93.9346L127.082 87.3483C125.88 86.7998 124.516 86.7231 123.261 87.1337C122.005 87.5442 120.95 88.4118 120.304 89.5643C119.659 90.7168 119.47 92.0699 119.776 93.355C120.082 94.64 120.86 95.7631 121.956 96.5011C122.593 95.3399 123.646 94.4627 124.903 94.0454C126.16 93.6282 127.529 93.7019 128.734 94.2517Z" fill="#FFE9BD"/>
<path d="M156.176 91.1542C154.437 93.2595 152.017 94.6904 149.334 95.1992C146.651 95.7079 143.875 95.2623 141.486 93.9397L127.082 87.3535C126.45 87.0475 125.764 86.8707 125.063 86.8336C124.362 86.7964 123.661 86.8996 123.001 87.1371C122.34 87.3746 121.734 87.7416 121.218 88.2166C120.701 88.6916 120.284 89.265 119.992 89.9032C119.7 90.5413 119.539 91.2314 119.517 91.9329C119.495 92.6343 119.614 93.3331 119.866 93.9881C120.118 94.6431 120.498 95.2412 120.984 95.7473C121.47 96.2534 122.053 96.6572 122.697 96.9351C143.332 112.558 147.491 114.543 152.551 116.509" stroke="#45413C" stroke-width="4" stroke-linecap="round" stroke-linejoin="round"/>
</svg>
