<svg width="737" height="412" viewBox="0 0 737 412" fill="none" xmlns="http://www.w3.org/2000/svg">
<path d="M157.655 328.347C157.655 328.695 157.131 328.978 156.485 328.978C156.181 328.981 155.887 328.916 155.668 328.798C155.449 328.679 155.323 328.518 155.317 328.347C155.317 327.999 155.841 327.716 156.485 327.716C157.131 327.716 157.655 327.999 157.655 328.347Z" fill="#404040"/>
<path d="M189.772 323.981C189.767 324.152 189.641 324.314 189.422 324.432C189.203 324.551 188.909 324.616 188.604 324.613C188.299 324.616 188.005 324.551 187.786 324.432C187.566 324.314 187.44 324.152 187.435 323.981C187.435 323.633 187.959 323.351 188.604 323.351C189.249 323.351 189.772 323.633 189.772 323.981Z" fill="#404040"/>
<path d="M367.647 378.061C367.647 378.409 367.123 378.691 366.477 378.691C366.326 378.693 366.177 378.678 366.036 378.647C365.896 378.616 365.768 378.57 365.659 378.511C365.551 378.453 365.464 378.383 365.404 378.305C365.344 378.228 365.312 378.145 365.309 378.061C365.312 377.976 365.344 377.893 365.404 377.816C365.464 377.738 365.551 377.668 365.659 377.61C365.768 377.551 365.896 377.505 366.036 377.474C366.177 377.443 366.326 377.428 366.477 377.43C367.123 377.43 367.647 377.712 367.647 378.061Z" fill="#404040"/>
<path d="M483.844 340.064C483.842 340.149 483.81 340.232 483.749 340.309C483.689 340.387 483.603 340.457 483.494 340.515C483.386 340.574 483.258 340.62 483.117 340.651C482.977 340.682 482.827 340.697 482.676 340.695C482.03 340.695 481.507 340.413 481.507 340.064C481.507 339.716 482.03 339.434 482.676 339.434C482.827 339.432 482.977 339.447 483.117 339.478C483.258 339.509 483.386 339.555 483.494 339.614C483.603 339.672 483.689 339.742 483.749 339.82C483.81 339.897 483.842 339.98 483.844 340.064Z" fill="#404040"/>
<path d="M443.28 366.669C443.274 366.839 443.148 367.002 442.929 367.12C442.709 367.238 442.415 367.303 442.11 367.301C441.959 367.302 441.809 367.287 441.669 367.256C441.529 367.225 441.401 367.179 441.292 367.12C441.184 367.061 441.097 366.991 441.037 366.914C440.977 366.837 440.945 366.753 440.942 366.669C440.945 366.585 440.977 366.501 441.037 366.424C441.097 366.347 441.184 366.277 441.292 366.218C441.401 366.16 441.529 366.114 441.669 366.083C441.809 366.052 441.959 366.037 442.11 366.038C442.756 366.038 443.28 366.321 443.28 366.669Z" fill="#404040"/>
<path d="M361.458 307.978C361.456 308.062 361.423 308.145 361.363 308.222C361.303 308.3 361.217 308.37 361.108 308.428C361 308.487 360.871 308.533 360.731 308.564C360.591 308.595 360.441 308.61 360.29 308.608C360.139 308.61 359.989 308.595 359.849 308.564C359.709 308.533 359.581 308.487 359.472 308.428C359.364 308.37 359.277 308.3 359.217 308.222C359.157 308.145 359.125 308.062 359.122 307.978C359.125 307.893 359.157 307.81 359.217 307.733C359.277 307.655 359.364 307.585 359.472 307.527C359.581 307.468 359.709 307.422 359.849 307.391C359.989 307.36 360.139 307.345 360.29 307.347C360.441 307.345 360.591 307.36 360.731 307.391C360.871 307.422 361 307.468 361.108 307.527C361.217 307.585 361.303 307.655 361.363 307.733C361.423 307.81 361.456 307.893 361.458 307.978Z" fill="#404040"/>
<path d="M236.948 182.223C236.945 182.307 236.913 182.39 236.853 182.468C236.793 182.545 236.706 182.615 236.598 182.673C236.489 182.732 236.361 182.778 236.221 182.809C236.08 182.84 235.931 182.855 235.78 182.853C235.629 182.855 235.479 182.84 235.339 182.809C235.198 182.778 235.07 182.732 234.962 182.673C234.853 182.615 234.767 182.545 234.706 182.468C234.646 182.39 234.614 182.307 234.612 182.223C234.614 182.138 234.646 182.055 234.706 181.978C234.767 181.9 234.853 181.83 234.962 181.772C235.07 181.713 235.198 181.667 235.339 181.636C235.479 181.605 235.629 181.59 235.78 181.592C235.931 181.59 236.08 181.605 236.221 181.636C236.361 181.667 236.489 181.713 236.598 181.772C236.706 181.83 236.793 181.9 236.853 181.978C236.913 182.055 236.945 182.138 236.948 182.223Z" fill="#404040"/>
<path d="M307.728 231.547C307.725 231.631 307.693 231.714 307.633 231.792C307.573 231.869 307.486 231.939 307.378 231.998C307.269 232.056 307.141 232.102 307.001 232.133C306.86 232.164 306.71 232.179 306.56 232.178C306.409 232.179 306.259 232.164 306.119 232.133C305.978 232.102 305.85 232.056 305.742 231.998C305.633 231.939 305.546 231.869 305.486 231.792C305.426 231.714 305.394 231.631 305.392 231.547C305.394 231.463 305.426 231.379 305.486 231.302C305.546 231.225 305.633 231.155 305.742 231.096C305.85 231.038 305.978 230.991 306.119 230.961C306.259 230.93 306.409 230.915 306.56 230.916C306.71 230.915 306.86 230.93 307.001 230.961C307.141 230.991 307.269 231.038 307.378 231.096C307.486 231.155 307.573 231.225 307.633 231.302C307.693 231.379 307.725 231.463 307.728 231.547Z" fill="#404040"/>
<path d="M343.619 201.442C343.616 201.527 343.584 201.61 343.524 201.687C343.464 201.765 343.377 201.835 343.269 201.893C343.16 201.952 343.032 201.998 342.892 202.029C342.751 202.06 342.601 202.075 342.451 202.074C342.3 202.075 342.15 202.06 342.009 202.029C341.869 201.998 341.741 201.952 341.632 201.893C341.524 201.835 341.437 201.765 341.377 201.687C341.317 201.61 341.285 201.527 341.283 201.442C341.285 201.358 341.317 201.275 341.377 201.198C341.437 201.12 341.524 201.05 341.633 200.992C341.741 200.933 341.869 200.887 342.009 200.856C342.15 200.825 342.3 200.81 342.451 200.812C342.601 200.81 342.751 200.825 342.892 200.856C343.032 200.887 343.16 200.933 343.268 200.992C343.377 201.05 343.464 201.12 343.524 201.198C343.584 201.275 343.616 201.358 343.619 201.442Z" fill="#404040"/>
<path d="M120.261 251.194C120.258 251.279 120.226 251.362 120.166 251.439C120.106 251.517 120.019 251.587 119.911 251.645C119.802 251.704 119.674 251.75 119.534 251.781C119.393 251.811 119.243 251.827 119.093 251.825C118.942 251.827 118.792 251.811 118.652 251.781C118.511 251.75 118.383 251.704 118.275 251.645C118.166 251.587 118.079 251.517 118.019 251.439C117.959 251.362 117.927 251.279 117.925 251.194C117.927 251.11 117.959 251.027 118.019 250.949C118.079 250.872 118.166 250.802 118.275 250.744C118.383 250.685 118.511 250.639 118.652 250.608C118.792 250.577 118.942 250.562 119.093 250.564C119.243 250.562 119.393 250.577 119.534 250.608C119.674 250.639 119.802 250.685 119.911 250.744C120.019 250.802 120.106 250.872 120.166 250.949C120.226 251.027 120.258 251.11 120.261 251.194Z" fill="#404040"/>
<path d="M171.343 278.956C171.337 279.126 171.211 279.288 170.992 279.407C170.774 279.525 170.479 279.59 170.175 279.588C169.87 279.59 169.576 279.525 169.356 279.407C169.137 279.289 169.011 279.126 169.005 278.956C169.005 278.608 169.529 278.325 170.175 278.325C170.819 278.325 171.343 278.608 171.343 278.956Z" fill="#404040"/>
<path d="M97.8915 306.716C97.886 306.886 97.76 307.048 97.5411 307.167C97.3221 307.285 97.0281 307.35 96.7234 307.347C96.4188 307.35 96.1248 307.285 95.9058 307.167C95.6869 307.048 95.5608 306.886 95.5554 306.716C95.5579 306.632 95.5901 306.548 95.6502 306.471C95.7102 306.394 95.797 306.324 95.9055 306.265C96.014 306.206 96.1421 306.16 96.2824 306.13C96.4228 306.099 96.5726 306.084 96.7234 306.085C96.8743 306.084 97.0241 306.099 97.1645 306.13C97.3048 306.16 97.4329 306.206 97.5414 306.265C97.6499 306.324 97.7366 306.394 97.7967 306.471C97.8568 306.548 97.889 306.632 97.8915 306.716Z" fill="#404040"/>
<path d="M60.4987 319.379C60.4933 319.549 60.3673 319.711 60.1483 319.83C59.9294 319.948 59.6353 320.013 59.3307 320.01C59.0259 320.013 58.7314 319.948 58.5121 319.83C58.2929 319.711 58.1666 319.549 58.1612 319.379C58.1612 319.031 58.6849 318.748 59.3307 318.748C59.975 318.748 60.4987 319.031 60.4987 319.379Z" fill="#404040"/>
<path d="M471.49 295.585C471.488 295.669 471.456 295.752 471.396 295.83C471.335 295.907 471.249 295.977 471.14 296.035C471.032 296.094 470.904 296.14 470.763 296.171C470.623 296.202 470.473 296.217 470.322 296.215C470.171 296.217 470.022 296.202 469.881 296.171C469.741 296.14 469.613 296.094 469.504 296.035C469.396 295.977 469.309 295.907 469.249 295.83C469.189 295.752 469.157 295.669 469.154 295.585C469.154 295.236 469.676 294.953 470.322 294.953C470.968 294.953 471.49 295.236 471.49 295.585Z" fill="#404040"/>
<path d="M620.229 286.211C620.226 286.295 620.194 286.378 620.134 286.456C620.074 286.533 619.987 286.603 619.879 286.662C619.77 286.72 619.642 286.766 619.502 286.797C619.362 286.828 619.212 286.843 619.061 286.842C618.91 286.843 618.76 286.828 618.62 286.797C618.48 286.766 618.351 286.72 618.243 286.662C618.134 286.603 618.048 286.533 617.988 286.456C617.928 286.378 617.895 286.295 617.893 286.211C617.895 286.127 617.928 286.043 617.988 285.966C618.048 285.889 618.134 285.819 618.243 285.76C618.351 285.702 618.48 285.656 618.62 285.625C618.76 285.594 618.91 285.579 619.061 285.58C619.212 285.579 619.362 285.594 619.502 285.625C619.642 285.656 619.77 285.702 619.879 285.76C619.987 285.819 620.074 285.889 620.134 285.966C620.194 286.043 620.226 286.127 620.229 286.211Z" fill="#404040"/>
<path d="M452.795 290.853C452.795 291.201 452.271 291.484 451.625 291.484C451.321 291.487 451.027 291.422 450.808 291.304C450.589 291.185 450.463 291.023 450.457 290.853C450.457 290.505 450.981 290.222 451.625 290.222C452.271 290.222 452.795 290.505 452.795 290.853Z" fill="#404040"/>
<path d="M317.912 109.87C317.912 110.218 317.388 110.501 316.742 110.501C316.438 110.503 316.144 110.439 315.925 110.32C315.706 110.202 315.58 110.04 315.574 109.87C315.577 109.786 315.609 109.703 315.669 109.625C315.729 109.548 315.816 109.478 315.924 109.419C316.033 109.361 316.161 109.315 316.301 109.284C316.442 109.253 316.591 109.238 316.742 109.239C317.388 109.239 317.912 109.521 317.912 109.87Z" fill="#404040"/>
<path d="M442.11 140.154C442.108 140.239 442.076 140.322 442.015 140.399C441.955 140.476 441.869 140.546 441.76 140.605C441.652 140.664 441.524 140.71 441.383 140.741C441.243 140.771 441.093 140.787 440.942 140.785C440.296 140.785 439.773 140.502 439.773 140.154C439.773 139.806 440.296 139.524 440.942 139.524C441.093 139.522 441.243 139.537 441.383 139.568C441.524 139.599 441.652 139.645 441.76 139.704C441.869 139.762 441.955 139.832 442.015 139.909C442.076 139.987 442.108 140.07 442.11 140.154Z" fill="#404040"/>
<path d="M469.154 169.875C469.154 170.223 468.63 170.505 467.985 170.505C467.68 170.508 467.387 170.443 467.168 170.325C466.949 170.207 466.822 170.045 466.817 169.875C466.817 169.526 467.34 169.243 467.985 169.243C468.63 169.243 469.154 169.526 469.154 169.875Z" fill="#404040"/>
<path d="M100.229 56.3095C100.227 56.3938 100.194 56.477 100.134 56.5544C100.074 56.6318 99.9876 56.7018 99.8791 56.7605C99.7707 56.8191 99.6426 56.8653 99.5022 56.8963C99.3619 56.9272 99.212 56.9424 99.0611 56.941C98.9101 56.9425 98.76 56.9274 98.6195 56.8965C98.479 56.8656 98.3507 56.8195 98.2421 56.7608C98.1335 56.7021 98.0466 56.6321 97.9865 56.5546C97.9263 56.4772 97.8941 56.3939 97.8916 56.3095C97.8916 55.9616 98.4153 55.6787 99.0611 55.6787C99.7054 55.6787 100.229 55.9616 100.229 56.3095Z" fill="#404040"/>
<path d="M184.363 76.7178C184.361 76.8021 184.329 76.8853 184.269 76.9626C184.208 77.04 184.122 77.1099 184.013 77.1685C183.905 77.2271 183.777 77.2732 183.636 77.304C183.496 77.3349 183.346 77.35 183.195 77.3485C183.044 77.35 182.895 77.3349 182.754 77.304C182.614 77.2732 182.486 77.2271 182.377 77.1685C182.269 77.1099 182.182 77.04 182.122 76.9626C182.062 76.8853 182.03 76.8021 182.027 76.7178C182.03 76.6335 182.062 76.5502 182.122 76.4729C182.182 76.3956 182.269 76.3256 182.377 76.267C182.486 76.2084 182.614 76.1624 182.754 76.1315C182.895 76.1006 183.044 76.0855 183.195 76.087C183.346 76.0855 183.496 76.1006 183.636 76.1315C183.777 76.1624 183.905 76.2084 184.013 76.267C184.122 76.3256 184.208 76.3956 184.269 76.4729C184.329 76.5502 184.361 76.6335 184.363 76.7178Z" fill="#404040"/>
<path d="M208.402 216.795C208.399 216.879 208.367 216.962 208.307 217.04C208.247 217.117 208.16 217.187 208.052 217.246C207.943 217.304 207.815 217.35 207.675 217.381C207.534 217.412 207.385 217.427 207.234 217.426C207.083 217.427 206.933 217.412 206.793 217.381C206.652 217.35 206.524 217.304 206.416 217.246C206.307 217.187 206.22 217.117 206.16 217.04C206.1 216.962 206.068 216.879 206.066 216.795C206.068 216.711 206.1 216.627 206.16 216.55C206.22 216.473 206.307 216.403 206.416 216.344C206.524 216.286 206.652 216.24 206.793 216.209C206.933 216.178 207.083 216.163 207.234 216.164C207.385 216.163 207.534 216.178 207.675 216.209C207.815 216.24 207.943 216.286 208.052 216.344C208.16 216.403 208.247 216.473 208.307 216.55C208.367 216.627 208.399 216.711 208.402 216.795Z" fill="#404040"/>
<path d="M345.956 263.453C345.954 263.537 345.921 263.621 345.861 263.698C345.801 263.775 345.714 263.845 345.606 263.904C345.497 263.962 345.369 264.009 345.229 264.039C345.089 264.07 344.939 264.085 344.788 264.084C344.142 264.084 343.619 263.802 343.619 263.453C343.619 263.104 344.142 262.822 344.788 262.822C344.939 262.821 345.089 262.836 345.229 262.867C345.369 262.898 345.497 262.944 345.606 263.002C345.714 263.061 345.801 263.131 345.861 263.208C345.921 263.286 345.954 263.369 345.956 263.453Z" fill="#404040"/>
<path d="M192.11 115.729C192.104 115.9 191.978 116.062 191.759 116.18C191.54 116.299 191.245 116.364 190.94 116.361C190.636 116.364 190.342 116.299 190.123 116.18C189.904 116.062 189.778 115.9 189.772 115.729C189.772 115.382 190.296 115.099 190.94 115.099C191.586 115.099 192.11 115.382 192.11 115.729Z" fill="#404040"/>
<path d="M102.567 150.825C102.564 150.91 102.532 150.993 102.472 151.07C102.411 151.148 102.325 151.218 102.216 151.276C102.107 151.335 101.979 151.381 101.839 151.412C101.698 151.443 101.548 151.458 101.397 151.456C101.246 151.457 101.096 151.442 100.956 151.411C100.816 151.381 100.688 151.335 100.579 151.276C100.471 151.217 100.384 151.147 100.324 151.07C100.264 150.993 100.231 150.91 100.229 150.825C100.231 150.741 100.264 150.658 100.324 150.58C100.384 150.503 100.471 150.433 100.579 150.374C100.688 150.316 100.816 150.27 100.956 150.239C101.096 150.208 101.246 150.193 101.397 150.194C101.548 150.193 101.698 150.208 101.839 150.239C101.979 150.27 102.107 150.316 102.216 150.374C102.325 150.433 102.411 150.503 102.472 150.58C102.532 150.658 102.564 150.741 102.567 150.825Z" fill="#404040"/>
<path d="M81.5318 97.7695C81.5294 97.8538 81.4972 97.937 81.4371 98.0144C81.377 98.0917 81.2903 98.1617 81.1818 98.2203C81.0733 98.2789 80.9452 98.3249 80.8049 98.3558C80.6645 98.3867 80.5146 98.4018 80.3638 98.4003C80.213 98.4018 80.0631 98.3867 79.9228 98.3558C79.7824 98.3249 79.6544 98.2789 79.5459 98.2203C79.4374 98.1617 79.3506 98.0917 79.2906 98.0144C79.2305 97.937 79.1983 97.8538 79.1958 97.7695C79.1983 97.6852 79.2305 97.602 79.2906 97.5247C79.3506 97.4473 79.4374 97.3773 79.5459 97.3188C79.6544 97.2602 79.7824 97.2141 79.9228 97.1832C80.0631 97.1524 80.213 97.1373 80.3638 97.1388C80.5146 97.1373 80.6645 97.1524 80.8049 97.1832C80.9452 97.2141 81.0733 97.2602 81.1818 97.3188C81.2903 97.3773 81.377 97.4473 81.4371 97.5247C81.4972 97.602 81.5294 97.6852 81.5318 97.7695Z" fill="#404040"/>
<path d="M138.958 194.751C138.952 194.921 138.826 195.083 138.607 195.201C138.388 195.319 138.094 195.384 137.79 195.381C137.639 195.383 137.489 195.368 137.348 195.337C137.208 195.306 137.08 195.26 136.971 195.202C136.863 195.143 136.776 195.073 136.715 194.996C136.655 194.918 136.623 194.835 136.62 194.751C136.62 194.402 137.144 194.119 137.79 194.119C138.435 194.119 138.958 194.402 138.958 194.751Z" fill="#404040"/>
<path d="M292.203 119.965C292.201 120.049 292.169 120.132 292.109 120.21C292.049 120.287 291.962 120.357 291.853 120.416C291.745 120.474 291.617 120.52 291.477 120.551C291.336 120.582 291.186 120.597 291.035 120.596C290.39 120.596 289.866 120.314 289.866 119.965C289.866 119.616 290.39 119.334 291.035 119.334C291.186 119.333 291.336 119.348 291.477 119.379C291.617 119.409 291.745 119.455 291.853 119.514C291.962 119.573 292.049 119.643 292.109 119.72C292.169 119.797 292.201 119.881 292.203 119.965Z" fill="#404040"/>
<path d="M486.182 102.66C486.182 103.008 485.658 103.291 485.012 103.291C484.708 103.293 484.414 103.228 484.195 103.11C483.976 102.992 483.85 102.83 483.844 102.66C483.844 102.311 484.368 102.028 485.012 102.028C485.658 102.028 486.182 102.311 486.182 102.66Z" fill="#404040"/>
<path d="M403.048 188.441C403.042 188.612 402.916 188.774 402.697 188.892C402.478 189.01 402.184 189.076 401.88 189.073C401.575 189.076 401.28 189.011 401.061 188.892C400.842 188.774 400.716 188.612 400.71 188.441C400.71 188.093 401.234 187.811 401.88 187.811C402.524 187.811 403.048 188.093 403.048 188.441Z" fill="#404040"/>
<path d="M581.334 217.426C581.329 217.596 581.202 217.758 580.983 217.877C580.764 217.995 580.469 218.06 580.165 218.057C579.86 218.06 579.566 217.995 579.347 217.876C579.128 217.758 579.002 217.596 578.997 217.426C578.997 217.078 579.52 216.795 580.165 216.795C580.81 216.795 581.334 217.078 581.334 217.426Z" fill="#404040"/>
<path d="M450.457 116.991C450.451 117.161 450.325 117.323 450.106 117.441C449.887 117.56 449.593 117.625 449.289 117.622C448.643 117.622 448.12 117.339 448.12 116.991C448.12 116.643 448.643 116.36 449.289 116.36C449.44 116.359 449.59 116.374 449.73 116.405C449.87 116.436 449.999 116.482 450.107 116.54C450.216 116.599 450.302 116.669 450.362 116.746C450.422 116.824 450.455 116.907 450.457 116.991Z" fill="#404040"/>
<path d="M433.096 63.3584C433.093 63.4428 433.061 63.5261 433.001 63.6035C432.941 63.6809 432.855 63.751 432.746 63.8097C432.638 63.8683 432.509 63.9145 432.369 63.9454C432.228 63.9763 432.078 63.9915 431.928 63.99C431.777 63.9915 431.627 63.9763 431.486 63.9454C431.346 63.9145 431.218 63.8683 431.109 63.8097C431.001 63.751 430.914 63.6809 430.854 63.6035C430.794 63.5261 430.762 63.4428 430.76 63.3584C430.762 63.2741 430.794 63.1909 430.854 63.1135C430.914 63.0362 431.001 62.9662 431.11 62.9076C431.218 62.8491 431.346 62.803 431.487 62.7721C431.627 62.7412 431.777 62.7261 431.928 62.7276C432.078 62.7261 432.228 62.7412 432.369 62.7721C432.509 62.803 432.637 62.8491 432.746 62.9076C432.854 62.9662 432.941 63.0362 433.001 63.1135C433.061 63.1909 433.093 63.2741 433.096 63.3584Z" fill="#404040"/>
<path d="M393.533 42.4482C393.53 42.5326 393.498 42.6158 393.438 42.6932C393.377 42.7705 393.291 42.8405 393.182 42.899C393.073 42.9576 392.945 43.0037 392.805 43.0345C392.664 43.0654 392.514 43.0805 392.363 43.079C392.059 43.0818 391.765 43.017 391.546 42.8987C391.327 42.7805 391.201 42.6184 391.195 42.4482C391.198 42.3639 391.23 42.2807 391.29 42.2034C391.35 42.126 391.437 42.0561 391.546 41.9975C391.654 41.9389 391.782 41.8928 391.922 41.862C392.063 41.8311 392.213 41.816 392.363 41.8175C393.009 41.8175 393.533 42.0996 393.533 42.4482Z" fill="#404040"/>
<path d="M563.848 90.8983C563.848 91.247 563.324 91.5291 562.678 91.5291C562.527 91.5306 562.377 91.5155 562.237 91.4846C562.097 91.4537 561.969 91.4077 561.86 91.3491C561.752 91.2905 561.665 91.2205 561.605 91.1432C561.545 91.0658 561.513 90.9826 561.51 90.8983C561.51 90.5505 562.034 90.2676 562.678 90.2676C563.324 90.2676 563.848 90.5505 563.848 90.8983Z" fill="#404040"/>
<path d="M542.606 63.3583C542.6 63.5287 542.474 63.6909 542.255 63.8094C542.035 63.9278 541.741 63.9927 541.436 63.9899C541.285 63.9913 541.135 63.9761 540.995 63.9451C540.855 63.9141 540.726 63.868 540.618 63.8093C540.51 63.7507 540.423 63.6807 540.363 63.6033C540.303 63.5259 540.271 63.4426 540.268 63.3583C540.268 63.0104 540.792 62.7275 541.436 62.7275C542.082 62.7275 542.606 63.0104 542.606 63.3583Z" fill="#404040"/>
<path d="M668.14 99.0311C668.137 99.1154 668.105 99.1987 668.045 99.276C667.985 99.3533 667.898 99.4233 667.79 99.4819C667.681 99.5405 667.553 99.5865 667.413 99.6174C667.272 99.6483 667.122 99.6634 666.972 99.6619C666.326 99.6619 665.802 99.3798 665.802 99.0311C665.802 98.6833 666.326 98.4004 666.972 98.4004C667.616 98.4004 668.14 98.6833 668.14 99.0311Z" fill="#404040"/>
<path d="M603.4 171.137C603.398 171.221 603.365 171.304 603.305 171.382C603.245 171.459 603.158 171.529 603.05 171.587C602.941 171.646 602.813 171.692 602.673 171.723C602.533 171.754 602.383 171.769 602.232 171.767C602.081 171.769 601.931 171.754 601.791 171.723C601.651 171.692 601.523 171.646 601.414 171.587C601.306 171.529 601.219 171.459 601.159 171.382C601.099 171.304 601.066 171.221 601.064 171.137C601.066 171.052 601.099 170.969 601.159 170.892C601.219 170.814 601.306 170.745 601.414 170.686C601.523 170.627 601.651 170.581 601.791 170.55C601.931 170.52 602.081 170.504 602.232 170.506C602.383 170.504 602.533 170.52 602.673 170.55C602.813 170.581 602.941 170.627 603.05 170.686C603.158 170.745 603.245 170.814 603.305 170.892C603.365 170.969 603.398 171.052 603.4 171.137Z" fill="#404040"/>
<path d="M460.504 234.431C460.499 234.601 460.373 234.763 460.154 234.881C459.935 235 459.641 235.065 459.336 235.062C459.032 235.065 458.737 235 458.518 234.882C458.299 234.763 458.172 234.601 458.167 234.431C458.167 234.083 458.691 233.8 459.336 233.8C459.981 233.8 460.504 234.083 460.504 234.431Z" fill="#404040"/>
<path d="M635.451 103.133C635.449 103.217 635.417 103.3 635.357 103.378C635.296 103.455 635.21 103.525 635.101 103.584C634.993 103.642 634.865 103.688 634.724 103.719C634.584 103.75 634.434 103.765 634.283 103.764C634.132 103.765 633.983 103.75 633.842 103.719C633.702 103.688 633.574 103.642 633.465 103.584C633.357 103.525 633.27 103.455 633.21 103.378C633.15 103.3 633.118 103.217 633.115 103.133C633.118 103.048 633.15 102.965 633.21 102.888C633.27 102.811 633.357 102.741 633.465 102.682C633.574 102.623 633.702 102.577 633.842 102.547C633.983 102.516 634.132 102.501 634.283 102.502C634.434 102.501 634.584 102.516 634.724 102.547C634.865 102.577 634.993 102.623 635.101 102.682C635.21 102.741 635.296 102.811 635.357 102.888C635.417 102.965 635.449 103.048 635.451 103.133Z" fill="#404040"/>
<path d="M623.734 188.441C623.732 188.526 623.7 188.609 623.64 188.686C623.58 188.764 623.493 188.834 623.384 188.892C623.276 188.951 623.148 188.997 623.008 189.028C622.867 189.059 622.717 189.074 622.566 189.073C622.416 189.074 622.266 189.059 622.125 189.028C621.985 188.997 621.857 188.951 621.748 188.892C621.64 188.834 621.553 188.764 621.493 188.686C621.433 188.609 621.401 188.526 621.398 188.441C621.401 188.357 621.433 188.274 621.493 188.197C621.553 188.119 621.64 188.049 621.748 187.991C621.857 187.932 621.985 187.886 622.125 187.855C622.266 187.824 622.416 187.809 622.566 187.811C622.717 187.809 622.867 187.824 623.007 187.855C623.148 187.886 623.276 187.932 623.384 187.991C623.493 188.049 623.58 188.119 623.64 188.197C623.7 188.274 623.732 188.357 623.734 188.441Z" fill="#404040"/>
<path d="M503.793 258.721C503.793 259.069 503.269 259.351 502.624 259.351C502.473 259.353 502.323 259.338 502.183 259.307C502.042 259.276 501.914 259.23 501.806 259.171C501.697 259.113 501.61 259.043 501.55 258.966C501.49 258.888 501.458 258.805 501.456 258.721C501.458 258.636 501.49 258.553 501.55 258.476C501.61 258.398 501.697 258.329 501.806 258.27C501.914 258.211 502.042 258.165 502.183 258.134C502.323 258.104 502.473 258.088 502.624 258.09C503.269 258.09 503.793 258.372 503.793 258.721Z" fill="#404040"/>
<path d="M621.399 49.279C621.393 49.4493 621.266 49.6113 621.047 49.7296C620.828 49.8478 620.534 49.9126 620.229 49.9098C619.925 49.9126 619.631 49.8478 619.412 49.7295C619.193 49.6113 619.066 49.4492 619.061 49.279C619.061 48.9304 619.585 48.6475 620.229 48.6475C620.875 48.6475 621.399 48.9304 621.399 49.279Z" fill="#404040"/>
<path d="M518.984 153.674C518.981 153.758 518.949 153.841 518.889 153.919C518.829 153.996 518.742 154.066 518.633 154.125C518.525 154.183 518.397 154.229 518.257 154.26C518.116 154.291 517.966 154.306 517.815 154.305C517.665 154.306 517.515 154.291 517.374 154.26C517.234 154.229 517.106 154.183 516.998 154.125C516.889 154.066 516.802 153.996 516.742 153.919C516.682 153.841 516.65 153.758 516.647 153.674C516.65 153.59 516.682 153.506 516.742 153.429C516.802 153.352 516.889 153.282 516.998 153.223C517.106 153.164 517.234 153.118 517.374 153.088C517.515 153.057 517.665 153.042 517.815 153.043C517.966 153.042 518.116 153.057 518.257 153.088C518.397 153.118 518.525 153.164 518.633 153.223C518.742 153.282 518.829 153.352 518.889 153.429C518.949 153.506 518.981 153.59 518.984 153.674Z" fill="#404040"/>
<path d="M655.202 237.315C655.199 237.399 655.167 237.483 655.107 237.56C655.047 237.637 654.96 237.707 654.852 237.766C654.743 237.825 654.615 237.871 654.475 237.901C654.334 237.932 654.185 237.947 654.034 237.946C653.883 237.947 653.733 237.932 653.593 237.901C653.452 237.871 653.324 237.825 653.216 237.766C653.107 237.707 653.021 237.637 652.96 237.56C652.9 237.483 652.868 237.399 652.866 237.315C652.866 236.966 653.388 236.684 654.034 236.684C654.68 236.684 655.202 236.966 655.202 237.315Z" fill="#404040"/>
<path d="M126.688 102.028C126.688 102.987 125.249 103.763 123.475 103.763C121.699 103.763 120.26 102.987 120.26 102.028C120.26 101.07 121.699 100.294 123.475 100.294C125.249 100.294 126.688 101.07 126.688 102.028Z" fill="#404040"/>
<path d="M352.383 160.433C352.383 161.391 350.944 162.169 349.17 162.169C347.395 162.169 345.956 161.391 345.956 160.433C345.956 159.475 347.395 158.698 349.17 158.698C350.944 158.698 352.383 159.475 352.383 160.433Z" fill="#404040"/>
<path d="M287.53 293.22C287.53 294.178 286.09 294.954 284.316 294.954C282.542 294.954 281.103 294.178 281.103 293.22C281.103 292.261 282.542 291.484 284.316 291.484C286.09 291.484 287.53 292.261 287.53 293.22Z" fill="#404040"/>
<path d="M104.611 348.153C104.611 349.112 103.173 349.888 101.397 349.888C99.623 349.888 98.1843 349.112 98.1843 348.153C98.1843 347.195 99.623 346.419 101.397 346.419C103.173 346.419 104.611 347.195 104.611 348.153Z" fill="#404040"/>
<path d="M510.22 213.799C510.22 214.757 508.782 215.534 507.006 215.534C505.232 215.534 503.793 214.757 503.793 213.799C503.793 212.841 505.232 212.063 507.006 212.063C508.782 212.063 510.22 212.841 510.22 213.799Z" fill="#404040"/>
<path d="M561.51 343.691C561.51 344.649 560.071 345.426 558.297 345.426C556.522 345.426 555.083 344.649 555.083 343.691C555.083 342.733 556.522 341.956 558.297 341.956C560.071 341.956 561.51 342.733 561.51 343.691Z" fill="#404040"/>
<path d="M591.683 261.087C591.683 262.045 590.244 262.822 588.47 262.822C586.696 262.822 585.256 262.045 585.256 261.087C585.256 260.129 586.696 259.352 588.47 259.352C590.244 259.352 591.683 260.129 591.683 261.087Z" fill="#404040"/>
<path d="M399.96 349.461C399.96 350.419 398.521 351.196 396.746 351.196C394.972 351.196 393.533 350.419 393.533 349.461C393.533 348.502 394.972 347.726 396.746 347.726C398.521 347.726 399.96 348.502 399.96 349.461Z" fill="#404040"/>
<path fill-rule="evenodd" clip-rule="evenodd" d="M401.183 231.171L390.5 236.939L389.555 236.429L400.238 230.661L401.183 231.171Z" fill="#404040"/>
<path fill-rule="evenodd" clip-rule="evenodd" d="M189.16 151.707L178.611 145.868L179.568 145.364L190.117 151.204L189.16 151.707Z" fill="#404040"/>
<path fill-rule="evenodd" clip-rule="evenodd" d="M572.115 322.645L559.739 317.965L560.505 317.375L572.88 322.055L572.115 322.645Z" fill="#404040"/>
<path fill-rule="evenodd" clip-rule="evenodd" d="M372.283 66.624L359.907 61.9448L360.674 61.3535L373.048 66.0327L372.283 66.624Z" fill="#404040"/>
<path fill-rule="evenodd" clip-rule="evenodd" d="M598.27 73.4391L595.069 81.4118L593.765 81.2589L596.964 73.2861L598.27 73.4391Z" fill="#404040"/>
<path d="M235.78 252.637C235.777 252.721 235.745 252.804 235.685 252.882C235.625 252.959 235.538 253.029 235.43 253.087C235.321 253.146 235.193 253.192 235.053 253.223C234.912 253.254 234.762 253.269 234.612 253.267C233.966 253.267 233.442 252.985 233.442 252.637C233.442 252.288 233.966 252.006 234.612 252.006C234.762 252.004 234.912 252.02 235.053 252.05C235.193 252.081 235.321 252.127 235.43 252.186C235.538 252.245 235.625 252.314 235.685 252.392C235.745 252.469 235.777 252.552 235.78 252.637Z" fill="#404040"/>
<path d="M169.005 341.326C169.003 341.41 168.971 341.494 168.911 341.571C168.851 341.648 168.764 341.718 168.655 341.777C168.547 341.835 168.419 341.882 168.278 341.912C168.138 341.943 167.988 341.958 167.837 341.957C167.687 341.958 167.537 341.943 167.396 341.912C167.256 341.882 167.128 341.835 167.019 341.777C166.911 341.718 166.824 341.648 166.764 341.571C166.704 341.494 166.672 341.41 166.669 341.326C166.672 341.242 166.704 341.159 166.764 341.081C166.824 341.004 166.911 340.934 167.019 340.875C167.128 340.817 167.256 340.771 167.396 340.74C167.537 340.709 167.687 340.694 167.837 340.695C167.988 340.694 168.138 340.709 168.278 340.74C168.419 340.771 168.547 340.817 168.655 340.875C168.764 340.934 168.851 341.004 168.911 341.081C168.971 341.159 169.003 341.242 169.005 341.326Z" fill="#404040"/>
<path d="M574.489 119.358C574.489 120.316 573.051 121.093 571.277 121.093C569.501 121.093 568.062 120.316 568.062 119.358C568.062 118.4 569.501 117.623 571.277 117.623C573.051 117.623 574.489 118.4 574.489 119.358Z" fill="#404040"/>
<path d="M175.432 237.315C175.432 238.273 173.994 239.05 172.22 239.05C170.444 239.05 169.005 238.273 169.005 237.315C169.005 236.356 170.444 235.58 172.22 235.58C173.994 235.58 175.432 236.356 175.432 237.315Z" fill="#404040"/>
<path d="M259.066 89.7938C259.066 90.7518 257.628 91.5281 255.854 91.5281C254.078 91.5281 252.639 90.7518 252.639 89.7938C252.639 88.8349 254.078 88.0586 255.854 88.0586C257.628 88.0586 259.066 88.8349 259.066 89.7938Z" fill="#404040"/>
<path d="M69.2632 190.244C69.2632 191.203 67.8231 191.979 66.049 191.979C64.2749 191.979 62.8362 191.203 62.8362 190.244C62.8362 189.286 64.2749 188.51 66.049 188.51C67.8231 188.51 69.2632 189.286 69.2632 190.244Z" fill="#404040"/>
<path fill-rule="evenodd" clip-rule="evenodd" d="M60.971 245.051L50.2867 250.819L49.3423 250.309L60.0265 244.541L60.971 245.051Z" fill="#404040"/>
<path fill-rule="evenodd" clip-rule="evenodd" d="M283.215 201.697L272.531 207.466L271.587 206.956L282.271 201.188L283.215 201.697Z" fill="#404040"/>
<path d="M29.783 351.624C29.783 352.582 28.3443 353.359 26.5688 353.359C24.7947 353.359 23.356 352.582 23.356 351.624C23.356 350.666 24.7947 349.889 26.5688 349.889C28.3443 349.889 29.783 350.666 29.783 351.624Z" fill="#404040"/>
<path d="M14.7591 293.737C14.7566 293.822 14.7244 293.905 14.6642 293.982C14.6041 294.06 14.5172 294.13 14.4085 294.188C14.2999 294.247 14.1716 294.293 14.0311 294.324C13.8906 294.355 13.7406 294.37 13.5896 294.368C13.4388 294.37 13.2889 294.354 13.1486 294.324C13.0082 294.293 12.8802 294.247 12.7717 294.188C12.6632 294.129 12.5764 294.06 12.5164 293.982C12.4563 293.905 12.4241 293.822 12.4216 293.737C12.4241 293.653 12.4563 293.57 12.5164 293.492C12.5764 293.415 12.6632 293.345 12.7717 293.287C12.8802 293.228 13.0082 293.182 13.1486 293.151C13.2889 293.12 13.4388 293.105 13.5896 293.107C13.7406 293.105 13.8906 293.12 14.0311 293.151C14.1716 293.182 14.2999 293.228 14.4085 293.286C14.5172 293.345 14.6041 293.415 14.6642 293.492C14.7244 293.57 14.7566 293.653 14.7591 293.737Z" fill="#404040"/>
<path d="M32.1191 62.2803C32.1166 62.3646 32.0844 62.4479 32.0244 62.5253C31.9643 62.6026 31.8776 62.6727 31.7691 62.7313C31.6606 62.79 31.5326 62.8361 31.3922 62.8671C31.2519 62.898 31.102 62.9133 30.9511 62.9118C30.8002 62.9133 30.6503 62.898 30.5099 62.8671C30.3696 62.8361 30.2415 62.79 30.133 62.7313C30.0246 62.6727 29.9378 62.6026 29.8778 62.5253C29.8177 62.4479 29.7855 62.3646 29.7831 62.2803C29.7855 62.196 29.8177 62.1128 29.8778 62.0354C29.9379 61.9581 30.0246 61.8881 30.1331 61.8295C30.2416 61.7709 30.3697 61.7249 30.51 61.694C30.6504 61.6631 30.8003 61.648 30.9511 61.6495C31.1019 61.648 31.2518 61.6631 31.3921 61.694C31.5325 61.7249 31.6605 61.7709 31.769 61.8295C31.8775 61.8881 31.9643 61.9581 32.0243 62.0354C32.0844 62.1128 32.1166 62.196 32.1191 62.2803Z" fill="#404040"/>
<path d="M2.73912 146.644C2.73663 146.728 2.70443 146.811 2.64436 146.888C2.5843 146.966 2.49754 147.036 2.38905 147.094C2.28057 147.153 2.15249 147.199 2.01213 147.23C1.87178 147.261 1.72191 147.276 1.5711 147.274C1.42017 147.276 1.27014 147.261 1.12962 147.23C0.989099 147.199 0.860842 147.153 0.752201 147.095C0.643559 147.036 0.556669 146.966 0.496508 146.889C0.436347 146.811 0.404099 146.728 0.401611 146.644C0.404099 146.559 0.436347 146.476 0.496508 146.399C0.556669 146.321 0.643559 146.251 0.752201 146.193C0.860842 146.134 0.989099 146.088 1.12962 146.057C1.27014 146.026 1.42017 146.011 1.5711 146.013C1.72191 146.011 1.87178 146.026 2.01213 146.057C2.15249 146.088 2.28057 146.134 2.38905 146.193C2.49754 146.251 2.5843 146.321 2.64436 146.399C2.70443 146.476 2.73663 146.559 2.73912 146.644Z" fill="#404040"/>
<path d="M737 190.244C737 191.203 735.561 191.979 733.787 191.979C732.012 191.979 730.573 191.203 730.573 190.244C730.573 189.286 732.012 188.51 733.787 188.51C735.561 188.51 737 189.286 737 190.244Z" fill="#404040"/>
<path fill-rule="evenodd" clip-rule="evenodd" d="M728.708 245.051L718.025 250.819L717.081 250.309L727.763 244.541L728.708 245.051Z" fill="#404040"/>
<path d="M697.52 351.624C697.52 352.582 696.081 353.359 694.307 353.359C692.531 353.359 691.093 352.582 691.093 351.624C691.093 350.666 692.531 349.889 694.307 349.889C696.081 349.889 697.52 350.666 697.52 351.624Z" fill="#404040"/>
<path d="M682.496 293.737C682.493 293.822 682.461 293.905 682.401 293.982C682.341 294.06 682.254 294.129 682.146 294.188C682.037 294.247 681.909 294.293 681.769 294.324C681.628 294.354 681.479 294.37 681.328 294.368C680.682 294.368 680.158 294.086 680.158 293.737C680.158 293.389 680.682 293.107 681.328 293.107C681.479 293.105 681.628 293.12 681.769 293.151C681.909 293.182 682.037 293.228 682.146 293.287C682.254 293.345 682.341 293.415 682.401 293.492C682.461 293.57 682.493 293.653 682.496 293.737Z" fill="#404040"/>
<path d="M637.789 367.931C637.783 368.101 637.657 368.263 637.438 368.381C637.219 368.499 636.925 368.564 636.621 368.561C635.975 368.561 635.452 368.278 635.452 367.931C635.452 367.582 635.975 367.3 636.621 367.3C636.772 367.298 636.922 367.313 637.062 367.344C637.202 367.375 637.33 367.421 637.439 367.48C637.547 367.538 637.634 367.608 637.694 367.686C637.754 367.763 637.787 367.846 637.789 367.931Z" fill="#404040"/>
<path d="M622.4 341.326C622.4 341.675 621.876 341.957 621.231 341.957C621.08 341.958 620.93 341.943 620.79 341.912C620.649 341.882 620.521 341.835 620.413 341.777C620.304 341.718 620.217 341.648 620.157 341.571C620.097 341.494 620.065 341.41 620.063 341.326C620.065 341.242 620.097 341.159 620.157 341.081C620.217 341.004 620.304 340.934 620.413 340.875C620.521 340.817 620.649 340.771 620.79 340.74C620.93 340.709 621.08 340.694 621.231 340.695C621.876 340.695 622.4 340.977 622.4 341.326Z" fill="#404040"/>
<path d="M699.857 62.2802C699.855 62.3645 699.823 62.4478 699.763 62.5251C699.702 62.6025 699.616 62.6726 699.507 62.7312C699.399 62.7899 699.271 62.836 699.13 62.867C698.99 62.8979 698.84 62.9131 698.689 62.9117C698.384 62.9146 698.09 62.8497 697.871 62.7313C697.651 62.6128 697.525 62.4506 697.52 62.2802C697.52 61.9323 698.043 61.6494 698.689 61.6494C699.334 61.6494 699.857 61.9323 699.857 62.2802Z" fill="#404040"/>
<path d="M670.477 146.644C670.477 146.992 669.954 147.274 669.308 147.274C669.157 147.276 669.007 147.261 668.867 147.23C668.727 147.199 668.598 147.153 668.49 147.094C668.381 147.036 668.295 146.966 668.235 146.888C668.175 146.811 668.142 146.728 668.14 146.644C668.142 146.559 668.175 146.476 668.235 146.399C668.295 146.321 668.381 146.251 668.49 146.193C668.598 146.134 668.727 146.088 668.867 146.057C669.007 146.026 669.157 146.011 669.308 146.013C669.954 146.013 670.477 146.295 670.477 146.644Z" fill="#404040"/>
<path d="M558.297 375.216C558.297 375.564 557.774 375.847 557.128 375.847C556.977 375.848 556.827 375.833 556.687 375.802C556.546 375.771 556.418 375.725 556.31 375.667C556.201 375.608 556.115 375.538 556.054 375.461C555.994 375.383 555.962 375.3 555.96 375.216C555.962 375.131 555.994 375.048 556.054 374.971C556.115 374.894 556.201 374.824 556.31 374.765C556.418 374.706 556.546 374.66 556.687 374.63C556.827 374.599 556.977 374.584 557.128 374.585C557.774 374.585 558.297 374.867 558.297 375.216Z" fill="#404040"/>
<path d="M679.824 388.735C679.822 388.82 679.79 388.903 679.73 388.98C679.67 389.058 679.583 389.128 679.475 389.186C679.366 389.245 679.238 389.291 679.098 389.322C678.957 389.353 678.807 389.368 678.656 389.367C678.506 389.368 678.356 389.353 678.215 389.322C678.075 389.291 677.947 389.245 677.838 389.186C677.73 389.128 677.643 389.058 677.583 388.98C677.523 388.903 677.491 388.82 677.488 388.735C677.491 388.651 677.523 388.568 677.583 388.49C677.643 388.413 677.73 388.343 677.838 388.285C677.947 388.226 678.075 388.18 678.215 388.149C678.356 388.118 678.506 388.103 678.656 388.105C678.807 388.103 678.957 388.118 679.097 388.149C679.238 388.18 679.366 388.226 679.474 388.285C679.583 388.343 679.67 388.413 679.73 388.49C679.79 388.568 679.822 388.651 679.824 388.735Z" fill="#404040"/>
<path d="M485.012 390.47C485.012 391.428 483.574 392.205 481.799 392.205C480.024 392.205 478.585 391.428 478.585 390.47C478.585 389.512 480.024 388.734 481.799 388.734C483.574 388.734 485.012 389.512 485.012 390.47Z" fill="#404040"/>
<path fill-rule="evenodd" clip-rule="evenodd" d="M278.217 360.522L285.174 367.764L283.988 368.096L277.033 360.854L278.217 360.522Z" fill="#404040"/>
<path d="M253.809 410.547C253.809 410.895 253.285 411.178 252.639 411.178C252.335 411.18 252.041 411.115 251.822 410.997C251.603 410.879 251.477 410.717 251.471 410.547C251.474 410.463 251.506 410.379 251.566 410.302C251.626 410.225 251.713 410.155 251.822 410.096C251.93 410.038 252.058 409.991 252.198 409.961C252.339 409.93 252.489 409.915 252.639 409.916C253.285 409.916 253.809 410.198 253.809 410.547Z" fill="#404040"/>
<path d="M62.8363 383.146C62.8338 383.231 62.8016 383.314 62.7414 383.392C62.6812 383.469 62.5943 383.539 62.4857 383.598C62.3771 383.656 62.2488 383.702 62.1083 383.733C61.9678 383.764 61.8177 383.779 61.6668 383.777C61.516 383.779 61.3661 383.764 61.2258 383.733C61.0854 383.702 60.9573 383.656 60.8489 383.597C60.7404 383.539 60.6536 383.469 60.5935 383.391C60.5335 383.314 60.5013 383.231 60.4988 383.146C60.5013 383.062 60.5335 382.979 60.5935 382.902C60.6536 382.824 60.7404 382.754 60.8489 382.696C60.9573 382.637 61.0854 382.591 61.2258 382.56C61.3661 382.529 61.516 382.514 61.6668 382.516C61.8177 382.514 61.9678 382.529 62.1083 382.56C62.2488 382.591 62.3771 382.637 62.4857 382.695C62.5943 382.754 62.6812 382.824 62.7414 382.901C62.8016 382.979 62.8338 383.062 62.8363 383.146Z" fill="#404040"/>
<path d="M217.083 379.323C217.08 379.407 217.048 379.49 216.988 379.568C216.928 379.645 216.841 379.715 216.732 379.774C216.624 379.832 216.496 379.878 216.356 379.909C216.215 379.94 216.065 379.955 215.915 379.954C215.764 379.955 215.614 379.94 215.474 379.909C215.333 379.878 215.205 379.832 215.097 379.774C214.988 379.715 214.901 379.645 214.841 379.568C214.781 379.49 214.749 379.407 214.747 379.323C214.747 378.974 215.269 378.691 215.915 378.691C216.56 378.691 217.083 378.974 217.083 379.323Z" fill="#404040"/>
<path d="M272.059 327.086C272.056 327.17 272.024 327.253 271.964 327.331C271.904 327.408 271.817 327.478 271.709 327.537C271.6 327.595 271.472 327.641 271.332 327.672C271.192 327.703 271.042 327.718 270.891 327.717C270.245 327.717 269.721 327.435 269.721 327.086C269.721 326.738 270.245 326.455 270.891 326.455C271.535 326.455 272.059 326.738 272.059 327.086Z" fill="#404040"/>
<path d="M730.573 383.146C730.57 383.231 730.538 383.314 730.478 383.391C730.418 383.469 730.331 383.539 730.223 383.597C730.114 383.656 729.986 383.702 729.846 383.733C729.706 383.764 729.556 383.779 729.405 383.777C728.759 383.777 728.235 383.495 728.235 383.146C728.235 382.798 728.759 382.516 729.405 382.516C729.556 382.514 729.706 382.529 729.846 382.56C729.986 382.591 730.114 382.637 730.223 382.696C730.331 382.754 730.418 382.824 730.478 382.902C730.538 382.979 730.57 383.062 730.573 383.146Z" fill="#404040"/>
<path d="M157.655 396.427C157.655 397.385 156.216 398.162 154.44 398.162C152.666 398.162 151.228 397.385 151.228 396.427C151.228 395.469 152.666 394.691 154.44 394.691C156.216 394.691 157.655 395.469 157.655 396.427Z" fill="#404040"/>
<path d="M558.297 14.6931C558.291 14.8634 558.165 15.0254 557.946 15.1437C557.727 15.2619 557.432 15.3267 557.128 15.3238C556.823 15.3267 556.529 15.2619 556.31 15.1436C556.091 15.0253 555.965 14.8633 555.96 14.6931C555.96 14.3444 556.483 14.0615 557.128 14.0615C557.774 14.0615 558.297 14.3444 558.297 14.6931Z" fill="#404040"/>
<path d="M679.824 28.2129C679.822 28.2972 679.79 28.3804 679.73 28.4577C679.669 28.5351 679.583 28.6051 679.474 28.6636C679.366 28.7222 679.238 28.7683 679.097 28.7992C678.957 28.83 678.807 28.8452 678.656 28.8436C678.505 28.8452 678.356 28.83 678.215 28.7992C678.075 28.7683 677.947 28.7222 677.838 28.6636C677.73 28.6051 677.643 28.5351 677.583 28.4577C677.523 28.3804 677.491 28.2972 677.488 28.2129C677.491 28.1286 677.523 28.0454 677.583 27.968C677.643 27.8907 677.73 27.8207 677.838 27.7621C677.947 27.7035 678.075 27.6575 678.215 27.6266C678.356 27.5957 678.505 27.5806 678.656 27.5821C678.807 27.5806 678.957 27.5957 679.097 27.6266C679.238 27.6575 679.366 27.7035 679.474 27.7621C679.583 27.8207 679.669 27.8907 679.73 27.968C679.79 28.0454 679.822 28.1286 679.824 28.2129Z" fill="#404040"/>
<path d="M485.012 29.9471C485.012 30.9051 483.574 31.6823 481.799 31.6823C480.024 31.6823 478.585 30.9051 478.585 29.9471C478.585 28.9882 480.024 28.2119 481.799 28.2119C483.574 28.2119 485.012 28.9882 485.012 29.9471Z" fill="#404040"/>
<path fill-rule="evenodd" clip-rule="evenodd" d="M278.217 0L285.173 7.24166L283.988 7.57389L277.033 0.332232L278.217 0Z" fill="#404040"/>
<path d="M253.809 50.0243C253.803 50.1946 253.677 50.3566 253.458 50.4749C253.238 50.5931 252.944 50.6579 252.639 50.655C252.335 50.6579 252.041 50.5931 251.822 50.4748C251.603 50.3565 251.477 50.1945 251.471 50.0243C251.471 49.6764 251.995 49.3936 252.639 49.3936C253.285 49.3936 253.809 49.6756 253.809 50.0243Z" fill="#404040"/>
<path d="M325.257 75.456C325.251 75.6263 325.125 75.7884 324.905 75.9066C324.686 76.0249 324.392 76.0897 324.087 76.0868C323.783 76.0897 323.489 76.0248 323.27 75.9066C323.051 75.7883 322.925 75.6262 322.919 75.456C322.922 75.3717 322.954 75.2885 323.014 75.2112C323.074 75.1338 323.161 75.0639 323.269 75.0053C323.378 74.9467 323.506 74.9007 323.646 74.8698C323.787 74.8389 323.936 74.8238 324.087 74.8253C324.733 74.8253 325.257 75.1074 325.257 75.456Z" fill="#404040"/>
<path d="M405.385 100.925C405.385 101.273 404.862 101.556 404.216 101.556C404.065 101.557 403.915 101.542 403.775 101.511C403.634 101.48 403.506 101.434 403.398 101.376C403.289 101.317 403.203 101.247 403.143 101.17C403.083 101.092 403.05 101.009 403.048 100.925C403.05 100.84 403.083 100.757 403.143 100.68C403.203 100.603 403.289 100.533 403.398 100.474C403.506 100.415 403.634 100.369 403.775 100.339C403.915 100.308 404.065 100.293 404.216 100.294C404.862 100.294 405.385 100.576 405.385 100.925Z" fill="#404040"/>
<path d="M274.396 154.935C274.396 155.284 273.873 155.566 273.227 155.566C273.076 155.568 272.926 155.553 272.786 155.522C272.645 155.491 272.517 155.445 272.409 155.386C272.3 155.328 272.214 155.258 272.154 155.18C272.094 155.103 272.061 155.02 272.059 154.935C272.059 154.588 272.583 154.305 273.227 154.305C273.873 154.305 274.396 154.588 274.396 154.935Z" fill="#404040"/>
<path d="M62.8363 22.6247C62.8336 22.7091 62.8012 22.7923 62.741 22.8697C62.6808 22.947 62.5939 23.017 62.4853 23.0755C62.3767 23.1341 62.2485 23.1801 62.108 23.211C61.9676 23.2419 61.8177 23.257 61.6668 23.2555C61.3623 23.2583 61.0683 23.1935 60.8493 23.0752C60.6302 22.957 60.5042 22.7949 60.4988 22.6247C60.4988 22.2761 61.0225 21.9932 61.6668 21.9932C62.3126 21.9932 62.8363 22.2761 62.8363 22.6247Z" fill="#404040"/>
<path d="M730.573 22.6247C730.568 22.7949 730.442 22.957 730.223 23.0752C730.003 23.1935 729.709 23.2583 729.405 23.2555C729.1 23.2583 728.806 23.1935 728.587 23.0753C728.368 22.957 728.241 22.795 728.235 22.6247C728.235 22.2761 728.759 21.9932 729.405 21.9932C730.049 21.9932 730.573 22.2761 730.573 22.6247Z" fill="#404040"/>
<path d="M157.655 35.9041C157.655 36.8622 156.216 37.6393 154.441 37.6393C152.666 37.6393 151.228 36.8622 151.228 35.9041C151.228 34.9452 152.666 34.1689 154.441 34.1689C156.216 34.1689 157.655 34.9452 157.655 35.9041Z" fill="#404040"/>
</svg>
