<svg width="512" height="512" viewBox="0 0 512 512" fill="none" xmlns="http://www.w3.org/2000/svg">
<rect width="512" height="512" fill="none"/>
<path d="M60.72 385.84C54.32 382.427 50.2667 378.907 48.56 375.28C46.8533 371.653 46 368.56 46 366C46 360.24 48.0267 352.56 52.08 342.96C56.3467 333.147 62 321.947 69.04 309.36C76.08 296.773 84.08 283.653 93.04 270C86.4267 269.573 80.1333 269.253 74.16 269.04C68.1867 268.827 60.5067 268.72 51.12 268.72H46C48.9867 261.04 53.68 255.707 60.08 252.72C66.6933 249.52 74.3733 247.92 83.12 247.92C86.7467 247.92 90.48 248.133 94.32 248.56C98.3733 248.987 102.533 249.413 106.8 249.84C117.467 234.48 127.92 219.973 138.16 206.32C148.613 192.667 158.427 180.4 167.6 169.52C176.987 158.427 185.307 149.36 192.56 142.32C202.8 132.08 210.267 126.96 214.96 126.96C217.947 126.96 221.253 128.133 224.88 130.48C228.72 132.827 232.667 135.813 236.72 139.44C234.587 141.147 231.813 145.52 228.4 152.56C225.2 159.6 221.68 168.56 217.84 179.44C214.213 190.107 210.48 201.84 206.64 214.64C203.013 227.44 199.707 240.453 196.72 253.68C193.733 266.907 191.28 279.6 189.36 291.76C187.653 303.707 186.8 314.267 186.8 323.44C186.8 331.973 187.653 338.373 189.36 342.64C191.067 346.693 193.947 348.72 198 348.72C202.907 348.72 208.987 344.987 216.24 337.52C223.493 330.053 231.6 317.893 240.56 301.04L246.32 307.12C239.707 324.613 231.067 339.013 220.4 350.32C209.947 361.627 198.747 367.28 186.8 367.28C176.56 367.28 169.307 362.907 165.04 354.16C160.773 345.2 158.64 333.04 158.64 317.68C158.64 312.773 158.96 307.227 159.6 301.04C160.24 294.853 161.307 287.173 162.8 278C153.413 276.507 145.093 275.333 137.84 274.48C130.587 273.627 123.653 272.773 117.04 271.92C106.8 290.053 96.88 308.827 87.28 328.24C77.68 347.653 68.8267 366.853 60.72 385.84ZM166 262.32C168.773 249.733 171.973 237.04 175.6 224.24C179.44 211.227 183.387 198.853 187.44 187.12C191.707 175.173 195.867 164.507 199.92 155.12C193.52 160.24 186.373 167.6 178.48 177.2C170.587 186.8 162.267 198.107 153.52 211.12C144.987 224.133 136.24 238.32 127.28 253.68C133.68 254.96 140.08 256.347 146.48 257.84C152.88 259.333 159.387 260.827 166 262.32ZM276.915 385.84C278.195 378.16 279.582 370.373 281.075 362.48C282.782 354.587 284.808 345.84 287.155 336.24C289.715 326.64 292.808 315.653 296.435 303.28C300.275 290.907 304.862 276.507 310.195 260.08C306.995 260.293 303.475 260.613 299.635 261.04C296.008 261.467 292.595 261.787 289.395 262C289.395 255.173 291.955 249.947 297.075 246.32C302.195 242.693 308.915 240.027 317.235 238.32C318.088 235.333 318.835 232.987 319.475 231.28C320.115 229.573 320.862 227.44 321.715 224.88C322.568 222.32 323.848 218.8 325.555 214.32C327.262 209.627 329.502 203.013 332.275 194.48C335.262 185.947 339.102 174.747 343.795 160.88C344.222 159.813 344.968 157.68 346.035 154.48C347.102 151.28 347.635 148.293 347.635 145.52C347.635 143.813 347.315 142.64 346.675 142C346.248 141.36 345.182 141.04 343.475 141.04C339.208 141.04 334.835 142.96 330.355 146.8C326.088 150.64 322.142 155.547 318.515 161.52C314.888 167.28 312.008 173.36 309.875 179.76C307.742 185.947 306.675 191.493 306.675 196.4C306.675 198.107 306.888 200.027 307.315 202.16C307.742 204.293 308.595 207.173 309.875 210.8C300.915 210.8 294.408 208.88 290.355 205.04C286.515 200.987 284.595 195.867 284.595 189.68C284.595 182.427 286.728 175.173 290.995 167.92C295.475 160.667 301.128 154.053 307.955 148.08C314.995 141.893 322.355 136.987 330.035 133.36C337.928 129.52 345.182 127.6 351.795 127.6C358.622 127.6 363.315 129.413 365.875 133.04C368.435 136.667 369.715 140.72 369.715 145.2C369.715 147.547 369.395 149.893 368.755 152.24C368.328 154.587 367.795 156.827 367.155 158.96L343.795 235.76C346.355 235.547 348.915 235.44 351.475 235.44C354.248 235.44 357.022 235.44 359.795 235.44C370.248 235.44 380.062 235.653 389.235 236.08C398.408 236.507 407.262 237.147 415.795 238C421.128 220.08 425.608 205.36 429.235 193.84C433.075 182.32 436.382 172.827 439.155 165.36C442.142 157.68 444.808 150.96 447.155 145.2C448.008 143.493 449.182 141.253 450.675 138.48C452.382 135.493 454.728 132.933 457.715 130.8C460.915 128.453 465.075 127.28 470.195 127.28C467.422 134.747 464.008 144.667 459.955 157.04C456.115 169.2 452.168 182.533 448.115 197.04C444.062 211.333 440.222 225.52 436.595 239.6C439.582 239.6 443.742 239.813 449.075 240.24C454.622 240.453 459.742 240.56 464.435 240.56C457.822 247.173 451.955 251.333 446.835 253.04C441.715 254.533 437.022 255.28 432.755 255.28C430.408 265.093 428.275 274.48 426.355 283.44C424.435 292.4 422.835 300.72 421.555 308.4C418.995 322.053 417.075 334 415.795 344.24C414.728 354.267 414.195 362.48 414.195 368.88C414.195 372.293 414.302 375.28 414.515 377.84C414.942 380.613 415.368 383.28 415.795 385.84C404.915 384.773 397.448 382.107 393.395 377.84C389.555 373.787 387.635 366.533 387.635 356.08C387.635 351.173 387.955 345.733 388.595 339.76C389.448 333.787 390.835 326.747 392.755 318.64C394.462 310.747 396.808 301.68 399.795 291.44C402.782 281.2 406.408 269.253 410.675 255.6C397.662 255.6 386.888 255.707 378.355 255.92C369.822 256.133 362.355 256.347 355.955 256.56C349.555 256.773 343.155 257.2 336.755 257.84C336.542 258.693 336.008 260.507 335.155 263.28C334.302 266.053 332.808 270.96 330.675 278C328.542 285.04 325.342 295.387 321.075 309.04C316.808 322.693 311.048 341.04 303.795 364.08C301.448 371.973 297.395 377.52 291.635 380.72C285.875 384.133 280.968 385.84 276.915 385.84Z" fill="#FFF59E"/>
</svg>
