<svg width="178" height="196" viewBox="0 0 178 196" fill="none" xmlns="http://www.w3.org/2000/svg">
<path opacity="0.1" d="M5.1003 167.284C3.51934 156.094 6.58471 143.947 15.4457 133.945C39.694 106.577 38.6614 112.072 42.9234 79.1334C47.1854 46.1945 83.0565 33.3457 109.626 47.0754C141.791 63.6961 125.1 69.9431 163.455 97.6951C196.609 121.685 165.884 166.915 111.172 185.885C66.9535 201.217 9.67931 199.695 5.1003 167.284Z" fill="#262626"/>
<path d="M32.6045 71.0039H135.124C137.454 71.004 139.688 71.9295 141.335 73.5768C142.982 75.2241 143.907 77.4582 143.907 79.7877V157.633C143.907 159.962 142.982 162.197 141.335 163.844C139.687 165.491 137.453 166.417 135.124 166.417H28.6908C26.3612 166.417 24.1271 165.491 22.4798 163.844C20.8326 162.197 19.9072 159.962 19.9072 157.633V83.7014C19.9072 80.3339 21.2449 77.1042 23.6261 74.723C26.0073 72.3418 29.2369 71.004 32.6045 71.0039Z" fill="#262626"/>
<path d="M142.788 78.4551H28.6908C23.8397 78.4551 19.9072 82.3876 19.9072 87.2387V165.084C19.9072 169.935 23.8397 173.867 28.6908 173.867H142.788C147.639 173.867 151.571 169.935 151.571 165.084V87.2387C151.571 82.3876 147.639 78.4551 142.788 78.4551Z" fill="#262626"/>
<path opacity="0.55" d="M142.788 78.4551H28.6908C23.8397 78.4551 19.9072 82.3876 19.9072 87.2387V165.084C19.9072 169.935 23.8397 173.867 28.6908 173.867H142.788C147.639 173.867 151.571 169.935 151.571 165.084V87.2387C151.571 82.3876 147.639 78.4551 142.788 78.4551Z" fill="#854800"/>
<path d="M142.788 174.183H28.6909C26.2785 174.18 23.9656 173.221 22.2598 171.515C20.5539 169.809 19.5944 167.496 19.5917 165.084V87.239C19.5945 84.8266 20.554 82.5137 22.2598 80.8079C23.9656 79.102 26.2785 78.1424 28.6909 78.1396H142.788C145.2 78.1425 147.513 79.1021 149.219 80.8079C150.924 82.5138 151.884 84.8266 151.887 87.239V165.084C151.884 167.496 150.924 169.809 149.219 171.515C147.513 173.221 145.2 174.18 142.788 174.183ZM28.6909 78.7701C26.4457 78.7724 24.2931 79.6653 22.7055 81.253C21.118 82.8406 20.2251 84.9932 20.2228 87.2384V165.083C20.2251 167.328 21.118 169.481 22.7056 171.068C24.2932 172.656 26.4457 173.549 28.6909 173.551H142.788C145.033 173.549 147.185 172.656 148.773 171.068C150.36 169.481 151.253 167.328 151.256 165.083V87.239C151.253 84.9938 150.36 82.8413 148.773 81.2537C147.185 79.6661 145.033 78.7731 142.788 78.7707L28.6909 78.7701Z" fill="#262626"/>
<path d="M141.548 167.17H138.993V166.539H141.531L141.548 167.17ZM136.455 167.17H133.916V166.539H136.454L136.455 167.17ZM131.378 167.17H128.84V166.539H131.378V167.17ZM126.302 167.17H123.764V166.539H126.302L126.302 167.17ZM121.226 167.17H118.687V166.539H121.225L121.226 167.17ZM116.15 167.17H113.612V166.539H116.15V167.17ZM111.074 167.17H108.536V166.539H111.074V167.17ZM105.997 167.17H103.459V166.539H105.997V167.17ZM100.921 167.17H98.383V166.539H100.921V167.17ZM95.845 167.17H93.3067V166.539H95.845V167.17ZM90.7687 167.17H88.2307V166.539H90.7687V167.17ZM85.6924 167.17H83.1544V166.539H85.6924V167.17ZM80.6162 167.17H78.0781V166.539H80.6162V167.17ZM75.5399 167.17H73.0019V166.539H75.5399V167.17ZM70.4638 167.17H67.9256V166.539H70.4638V167.17ZM65.3875 167.17H62.8493V166.539H65.3875V167.17ZM60.3113 167.17H57.7732V166.539H60.3113V167.17ZM55.235 167.17H52.697V166.539H55.235V167.17ZM50.1587 167.17H47.6207V166.539H50.1587V167.17ZM45.0827 167.17H42.5444V166.539H45.0827V167.17ZM40.0064 167.17H37.4681V166.539H40.0064V167.17ZM34.9301 167.17H32.3921V166.539H34.9301V167.17ZM29.8427 167.167C28.9309 167.136 28.0478 166.841 27.2992 166.32L27.6597 165.802C28.3086 166.254 29.0745 166.51 29.8652 166.538L29.8427 167.167ZM144.119 166.406L143.776 165.877C144.44 165.446 144.967 164.834 145.294 164.114L145.868 164.374C145.492 165.205 144.885 165.91 144.119 166.406ZM25.6166 164.232C25.3769 163.655 25.2541 163.036 25.2553 162.41V161.619H25.8863V162.41C25.8852 162.953 25.9917 163.49 26.1997 163.991L25.6166 164.232ZM146.292 161.763H145.661V159.225H146.292V161.763ZM25.8863 159.08H25.2553V156.542H25.8863V159.08ZM146.291 156.687H145.66V154.148H146.291V156.687ZM25.8863 154.004H25.2553V151.466H25.8863V154.004ZM146.291 151.61H145.66V149.072H146.291V151.61ZM25.8863 148.928H25.2553V146.39H25.8863V148.928ZM146.291 146.534H145.66V143.996H146.291V146.534ZM25.8863 143.852H25.2553V141.314H25.8863V143.852ZM146.291 141.457H145.66V138.92H146.291V141.457ZM25.8863 138.776H25.2553V136.238H25.8863V138.776ZM146.291 136.381H145.66V133.843H146.291V136.381ZM25.8863 133.699H25.2553V131.161H25.8863V133.699ZM146.291 131.305H145.66V128.767H146.291V131.305ZM25.8863 128.623H25.2553V126.085H25.8863V128.623ZM146.291 126.228H145.66V123.691H146.291V126.228ZM25.8863 123.547H25.2553V121.009H25.8863V123.547ZM146.291 121.153H145.66V118.614H146.291V121.153ZM25.8863 118.471H25.2553V115.932H25.8863V118.471ZM146.291 116.077H145.66V113.538H146.291V116.077ZM25.8863 113.394H25.2553V110.856H25.8863V113.394ZM146.291 110.999H145.66V108.462H146.291V110.999ZM25.8863 108.318H25.2553V105.78H25.8863V108.318ZM146.291 105.924H145.66V103.386H146.291V105.924ZM25.8863 103.242H25.2553V100.704H25.8863V103.242ZM146.291 100.848H145.66V98.3097H146.291V100.848ZM25.8863 98.1658H25.2553V95.6276H25.8863V98.1658ZM146.291 95.7716H145.66V93.2334H146.291V95.7716ZM25.8863 93.0895H25.2553V90.5513H25.8863V93.0895ZM146.291 90.6954H145.66V89.9125C145.662 89.3674 145.555 88.8276 145.345 88.3246L145.927 88.0816C146.169 88.6614 146.293 89.2834 146.292 89.9116L146.291 90.6954ZM26.2563 88.2013L25.682 87.9396C26.0602 87.1097 26.6688 86.4059 27.4353 85.9117L27.7777 86.4416C27.1127 86.8705 26.5847 87.4813 26.2563 88.2013ZM143.88 86.5164C143.23 86.0656 142.464 85.812 141.673 85.7859L141.694 85.1549C142.606 85.1848 143.49 85.4774 144.239 85.9975L143.88 86.5164ZM139.146 85.7834H136.609V85.1523H139.147L139.146 85.7834ZM134.07 85.7834H131.532V85.1523H134.07V85.7834ZM128.994 85.7834H126.455V85.1523H128.994L128.994 85.7834ZM123.917 85.7834H121.379V85.1523H123.918L123.917 85.7834ZM118.841 85.7834H116.303V85.1523H118.841V85.7834ZM113.765 85.7834H111.227V85.1523H113.765L113.765 85.7834ZM108.688 85.7834H106.15V85.1523H108.688V85.7834ZM103.612 85.7834H101.074V85.1523H103.612V85.7834ZM98.5361 85.7834H95.9979V85.1523H98.5359L98.5361 85.7834ZM93.4599 85.7834H90.9214V85.1523H93.4597L93.4599 85.7834ZM88.3836 85.7834H85.8456V85.1523H88.3836V85.7834ZM83.3073 85.7834H80.7693V85.1523H83.3069L83.3073 85.7834ZM78.231 85.7834H75.6924V85.1523H78.2304L78.231 85.7834ZM73.155 85.7834H70.6167V85.1523H73.155V85.7834ZM68.0787 85.7834H65.5405V85.1523H68.0779L68.0787 85.7834ZM63.0024 85.7834H60.4633V85.1523H63.0014L63.0024 85.7834ZM57.9262 85.7834H55.3881V85.1523H57.9262V85.7834ZM52.8499 85.7834H50.3119V85.1523H52.8499V85.7834ZM47.7738 85.7834H45.2356V85.1523H47.7738V85.7834ZM42.6975 85.7834H40.1593V85.1523H42.6975V85.7834ZM37.6213 85.7834H35.0832V85.1523H37.6213V85.7834ZM32.545 85.7834H30.0156L30.007 85.1523H32.545V85.7834Z" fill="white"/>
<path d="M111.91 111.345H152.074C153.335 111.345 154.545 111.846 155.437 112.738C156.329 113.629 156.83 114.839 156.83 116.1V136.224C156.83 137.485 156.329 138.695 155.437 139.587C154.545 140.478 153.335 140.979 152.074 140.979H111.91C110.498 140.979 109.145 140.419 108.147 139.421C107.149 138.423 106.588 137.069 106.588 135.658V116.667C106.588 115.968 106.726 115.276 106.993 114.63C107.26 113.985 107.652 113.398 108.147 112.904C108.641 112.409 109.227 112.017 109.873 111.75C110.519 111.482 111.211 111.345 111.91 111.345Z" fill="white"/>
<path d="M152.074 141.295H111.91C110.415 141.293 108.982 140.698 107.926 139.642C106.869 138.585 106.274 137.152 106.272 135.657V116.667C106.274 115.172 106.869 113.739 107.925 112.682C108.982 111.626 110.415 111.031 111.91 111.029H152.074C153.419 111.031 154.707 111.566 155.658 112.516C156.609 113.467 157.144 114.756 157.145 116.1V136.224C157.143 137.568 156.609 138.857 155.658 139.808C154.707 140.758 153.418 141.293 152.074 141.295ZM111.91 111.66C110.582 111.661 109.31 112.189 108.372 113.128C107.433 114.066 106.905 115.339 106.903 116.666V135.656C106.905 136.983 107.433 138.256 108.372 139.194C109.31 140.133 110.582 140.661 111.91 140.662H152.074C153.251 140.661 154.38 140.193 155.212 139.36C156.045 138.528 156.513 137.399 156.514 136.222V116.098C156.513 114.921 156.045 113.793 155.212 112.96C154.38 112.128 153.251 111.66 152.074 111.658L111.91 111.66Z" fill="#262626"/>
<path d="M121.053 133.406C125.055 133.406 128.299 130.162 128.299 126.161C128.299 122.159 125.055 118.915 121.053 118.915C117.052 118.915 113.808 122.159 113.808 126.161C113.808 130.162 117.052 133.406 121.053 133.406Z" fill="white"/>
<path d="M121.053 133.722C119.558 133.722 118.096 133.279 116.853 132.448C115.609 131.617 114.64 130.436 114.068 129.054C113.496 127.672 113.346 126.152 113.638 124.685C113.93 123.219 114.65 121.871 115.707 120.814C116.765 119.757 118.112 119.037 119.579 118.745C121.046 118.453 122.566 118.603 123.948 119.175C125.329 119.748 126.51 120.717 127.341 121.96C128.172 123.204 128.615 124.665 128.615 126.161C128.613 128.166 127.816 130.088 126.398 131.505C124.98 132.923 123.058 133.72 121.053 133.722ZM121.053 119.231C119.683 119.231 118.343 119.638 117.203 120.399C116.064 121.161 115.175 122.243 114.651 123.51C114.126 124.776 113.989 126.169 114.257 127.514C114.524 128.858 115.184 130.093 116.154 131.062C117.123 132.031 118.358 132.691 119.702 132.958C121.046 133.226 122.44 133.088 123.706 132.564C124.973 132.039 126.055 131.151 126.816 130.011C127.578 128.871 127.984 127.532 127.984 126.161C127.982 124.323 127.251 122.562 125.952 121.263C124.652 119.963 122.891 119.233 121.053 119.231Z" fill="#262626"/>
<path d="M4.70258 111.494C4.6422 111.494 4.58241 111.482 4.52662 111.459C4.47083 111.436 4.42014 111.402 4.37744 111.359C4.33475 111.316 4.30088 111.266 4.27777 111.21C4.25466 111.154 4.24277 111.094 4.24277 111.034V98.0604C4.24277 97.9385 4.29121 97.8215 4.37744 97.7353C4.46368 97.649 4.58063 97.6006 4.70258 97.6006C4.82453 97.6006 4.94149 97.649 5.02772 97.7353C5.11395 97.8215 5.1624 97.9385 5.1624 98.0604V111.034C5.1624 111.156 5.11395 111.273 5.02772 111.359C4.94149 111.445 4.82453 111.494 4.70258 111.494Z" fill="#262626"/>
<path d="M8.93565 105.006H0.46965C0.408452 105.008 0.347609 104.997 0.290689 104.974C0.233768 104.952 0.181916 104.918 0.138173 104.875C0.0944291 104.833 0.0596751 104.781 0.0359484 104.725C0.0122217 104.669 0 104.608 0 104.547C0 104.486 0.0122217 104.425 0.0359484 104.368C0.0596751 104.312 0.0944291 104.261 0.138173 104.218C0.181916 104.175 0.233768 104.142 0.290689 104.119C0.347609 104.097 0.408452 104.086 0.46965 104.087H8.93565C9.05587 104.09 9.17029 104.139 9.25441 104.225C9.33852 104.311 9.38563 104.426 9.38563 104.547C9.38563 104.667 9.33852 104.782 9.25441 104.868C9.17029 104.954 9.05587 105.004 8.93565 105.006Z" fill="#262626"/>
<path d="M167.543 129.965C167.457 129.965 167.374 129.931 167.313 129.87C167.253 129.809 167.218 129.727 167.218 129.641V122.682C167.217 122.639 167.225 122.596 167.241 122.556C167.256 122.515 167.28 122.479 167.31 122.448C167.341 122.417 167.377 122.392 167.417 122.375C167.456 122.358 167.499 122.35 167.543 122.35C167.586 122.35 167.629 122.358 167.669 122.375C167.709 122.392 167.745 122.417 167.775 122.448C167.805 122.479 167.829 122.515 167.845 122.556C167.86 122.596 167.868 122.639 167.867 122.682V129.641C167.867 129.683 167.858 129.725 167.842 129.765C167.826 129.804 167.802 129.84 167.772 129.87C167.742 129.9 167.706 129.924 167.667 129.94C167.627 129.956 167.585 129.965 167.543 129.965Z" fill="#262626"/>
<path d="M169.813 126.486H165.272C165.229 126.487 165.186 126.479 165.146 126.463C165.105 126.447 165.069 126.424 165.038 126.394C165.007 126.363 164.982 126.327 164.965 126.287C164.948 126.247 164.94 126.205 164.94 126.161C164.94 126.118 164.948 126.075 164.965 126.035C164.982 125.995 165.007 125.959 165.038 125.929C165.069 125.899 165.105 125.875 165.146 125.859C165.186 125.843 165.229 125.836 165.272 125.837H169.813C169.898 125.839 169.978 125.874 170.037 125.935C170.096 125.995 170.129 126.077 170.129 126.161C170.129 126.246 170.096 126.327 170.037 126.388C169.978 126.448 169.898 126.483 169.813 126.486Z" fill="#262626"/>
<path d="M162.353 71.0039C162.31 71.0039 162.268 70.9955 162.229 70.9793C162.189 70.963 162.154 70.9391 162.124 70.909C162.093 70.8789 162.069 70.8432 162.053 70.8038C162.037 70.7645 162.028 70.7223 162.028 70.6797V63.7213C162.027 63.678 162.035 63.6349 162.051 63.5946C162.067 63.5543 162.09 63.5176 162.12 63.4866C162.151 63.4556 162.187 63.431 162.227 63.4142C162.267 63.3973 162.309 63.3887 162.353 63.3887C162.396 63.3887 162.439 63.3973 162.479 63.4142C162.519 63.431 162.555 63.4556 162.585 63.4866C162.615 63.5176 162.639 63.5543 162.655 63.5946C162.671 63.6349 162.678 63.678 162.677 63.7213V70.6797C162.677 70.7657 162.643 70.8481 162.582 70.9089C162.521 70.9697 162.439 71.0039 162.353 71.0039Z" fill="#262626"/>
<path d="M164.623 67.5246H160.083C160.039 67.5257 159.996 67.5181 159.956 67.5023C159.916 67.4865 159.879 67.4628 159.848 67.4326C159.817 67.4024 159.792 67.3662 159.775 67.3264C159.759 67.2865 159.75 67.2436 159.75 67.2003C159.75 67.157 159.759 67.1142 159.775 67.0743C159.792 67.0344 159.817 66.9983 159.848 66.9681C159.879 66.9379 159.916 66.9141 159.956 66.8984C159.996 66.8826 160.039 66.875 160.083 66.8761H164.624C164.708 66.8782 164.788 66.9133 164.848 66.9739C164.907 67.0345 164.94 67.1157 164.94 67.2003C164.94 67.2849 164.907 67.3662 164.848 67.4267C164.788 67.4873 164.708 67.5224 164.624 67.5246H164.623Z" fill="#262626"/>
<path d="M38.239 26.6456C37.6346 26.6592 37.0489 26.4362 36.6064 26.0243C36.164 25.6124 35.8998 25.044 35.8702 24.4403C35.8406 23.8365 36.0478 23.245 36.4478 22.7917C36.8477 22.3385 37.4088 22.0592 38.0116 22.0135C38.6144 21.9678 39.2112 22.1591 39.675 22.5469C40.1387 22.9346 40.4328 23.4881 40.4946 24.0894C40.5564 24.6907 40.3811 25.2924 40.0058 25.7664C39.6306 26.2403 39.0852 26.5491 38.4857 26.6269C38.4039 26.6374 38.3215 26.6437 38.239 26.6456ZM38.1538 22.6941C38.0961 22.6953 38.0385 22.6997 37.9813 22.7071C37.5587 22.7617 37.174 22.9791 36.9093 23.3131C36.6446 23.647 36.5208 24.0711 36.5641 24.4951C36.6075 24.919 36.8146 25.3092 37.1415 25.5827C37.4683 25.8561 37.889 25.9912 38.3139 25.9591C38.7388 25.9269 39.1344 25.7302 39.4164 25.4107C39.6985 25.0912 39.8446 24.6742 39.8237 24.2486C39.8028 23.823 39.6166 23.4223 39.3047 23.1319C38.9928 22.8416 38.5798 22.6845 38.1538 22.6941Z" fill="#854800"/>
<path d="M39.6551 21.4954C39.0836 21.5074 38.5277 21.3077 38.0945 20.9347C37.6613 20.5617 37.3812 20.0416 37.3083 19.4746C37.2498 19.0201 37.3275 18.5585 37.5314 18.1482C37.7352 17.7378 38.0562 17.3972 38.4537 17.1692C38.8512 16.9413 39.3074 16.8364 39.7645 16.8677C40.2217 16.8991 40.6593 17.0652 41.0219 17.3453C41.3846 17.6253 41.6561 18.0066 41.8021 18.4409C41.9481 18.8752 41.962 19.3431 41.8421 19.7854C41.7222 20.2276 41.4738 20.6243 41.1284 20.9254C40.783 21.2265 40.3561 21.4184 39.9016 21.4769C39.8199 21.4873 39.7376 21.4935 39.6551 21.4954ZM39.571 17.5436C39.3415 17.5484 39.1157 17.6015 38.9081 17.6994C38.7005 17.7972 38.5159 17.9377 38.3662 18.1116C38.2164 18.2855 38.105 18.489 38.0391 18.7088C37.9732 18.9287 37.9543 19.1599 37.9837 19.3875C38.0242 19.7007 38.1546 19.9955 38.3591 20.2362C38.5635 20.477 38.8334 20.6533 39.1359 20.7439C39.4385 20.8345 39.7608 20.8356 40.0639 20.7469C40.3671 20.6583 40.638 20.4837 40.8441 20.2443C41.0501 20.005 41.1824 19.711 41.2249 19.3981C41.2675 19.0851 41.2185 18.7665 41.0838 18.4808C40.9491 18.1952 40.7346 17.9546 40.4661 17.7882C40.1977 17.6219 39.8868 17.537 39.571 17.5436Z" fill="#854800"/>
<path d="M41.8367 22.4948C42.133 21.417 41.0652 20.1837 39.4516 19.7401C37.8381 19.2964 36.2898 19.8105 35.9935 20.8883C35.6971 21.9661 36.765 23.1995 38.3785 23.6431C39.9921 24.0867 41.5404 23.5726 41.8367 22.4948Z" fill="white"/>
<path d="M39.6295 24.1423C39.1765 24.1506 38.7247 24.0931 38.2883 23.9715C36.4655 23.4702 35.3132 22.076 35.6649 20.7978C36.0166 19.5195 37.7195 18.9105 39.5418 19.4112C40.3404 19.6153 41.062 20.048 41.6181 20.6564C42.1454 21.2664 42.3398 21.9502 42.165 22.5849C41.9902 23.2195 41.4736 23.7087 40.709 23.9626C40.36 24.0756 39.9962 24.1362 39.6295 24.1423ZM38.2265 19.9248C37.2759 19.9459 36.4974 20.3409 36.3222 20.9782C36.0801 21.8581 37.0633 22.9277 38.4677 23.3141C39.1284 23.5115 39.8323 23.5121 40.4934 23.3158C41.0348 23.136 41.3949 22.8122 41.507 22.4042C41.6191 21.9961 41.4753 21.534 41.1017 21.1026C40.634 20.596 40.0289 20.2366 39.3602 20.0685C38.9913 19.9659 38.6094 19.9175 38.2265 19.9248Z" fill="#854800"/>
<path d="M39.1098 23.7806L40.0873 19.9674L39.1546 19.6689L38.019 23.5275L39.1098 23.7806Z" fill="#854800"/>
<path d="M34.8952 21.4596C35.068 21.4596 35.208 21.3195 35.208 21.1468C35.208 20.974 35.068 20.834 34.8952 20.834C34.7225 20.834 34.5825 20.974 34.5825 21.1468C34.5825 21.3195 34.7225 21.4596 34.8952 21.4596Z" fill="#854800"/>
<path d="M35.5759 19.9107C35.7487 19.9107 35.8887 19.7707 35.8887 19.5979C35.8887 19.4252 35.7487 19.2852 35.5759 19.2852C35.4032 19.2852 35.2632 19.4252 35.2632 19.5979C35.2632 19.7707 35.4032 19.9107 35.5759 19.9107Z" fill="#854800"/>
<path d="M73.1278 63.1542C73.0831 63.1542 73.0396 63.1401 73.0036 63.1137C72.9675 63.0874 72.9407 63.0503 72.9272 63.0077C72.9136 62.9652 72.9139 62.9194 72.9281 62.8771C72.9423 62.8347 72.9696 62.798 73.006 62.7722C73.1451 62.6686 73.2789 62.5579 73.4067 62.4407C73.4273 62.4222 73.4512 62.408 73.4773 62.3988C73.5034 62.3896 73.531 62.3856 73.5586 62.3871C73.5861 62.3886 73.6132 62.3955 73.6381 62.4074C73.663 62.4193 73.6854 62.436 73.7038 62.4566C73.7223 62.4771 73.7365 62.5011 73.7457 62.5272C73.7549 62.5532 73.7589 62.5808 73.7574 62.6084C73.7559 62.636 73.749 62.663 73.7371 62.688C73.7252 62.7129 73.7085 62.7352 73.6879 62.7537C73.5479 62.882 73.4013 63.0029 73.2487 63.1159C73.2133 63.1408 73.1711 63.1542 73.1278 63.1542ZM75.2157 60.8989C75.1771 60.8988 75.1393 60.8882 75.1064 60.8681C75.0735 60.848 75.0467 60.8193 75.029 60.785C75.0113 60.7508 75.0034 60.7123 75.0061 60.6739C75.0088 60.6354 75.022 60.5984 75.0442 60.5669C75.5245 59.8845 75.9452 59.1619 76.3015 58.4073C76.3128 58.3815 76.3291 58.3582 76.3496 58.3388C76.37 58.3194 76.3942 58.3044 76.4205 58.2945C76.4469 58.2846 76.475 58.2801 76.5032 58.2813C76.5313 58.2825 76.559 58.2894 76.5844 58.3015C76.6099 58.3135 76.6327 58.3306 76.6514 58.3517C76.6701 58.3727 76.6844 58.3973 76.6935 58.424C76.7025 58.4507 76.7061 58.4789 76.704 58.507C76.7019 58.5351 76.6942 58.5625 76.6814 58.5876C76.3148 59.3642 75.8819 60.1077 75.3875 60.8099C75.3681 60.8374 75.3424 60.8598 75.3124 60.8753C75.2825 60.8908 75.2494 60.8989 75.2157 60.8989ZM77.3974 56.3403C77.3769 56.3402 77.3565 56.3372 77.3368 56.3314C77.2834 56.3154 77.2386 56.2788 77.2121 56.2296C77.1857 56.1805 77.1799 56.1229 77.1959 56.0695C77.4344 55.2676 77.6194 54.4507 77.7497 53.6243C77.7537 53.5967 77.7631 53.5702 77.7775 53.5463C77.7918 53.5224 77.8107 53.5015 77.8332 53.485C77.8556 53.4685 77.8811 53.4566 77.9082 53.45C77.9353 53.4434 77.9634 53.4423 77.9909 53.4467C78.0184 53.451 78.0448 53.4608 78.0685 53.4755C78.0922 53.4901 78.1128 53.5094 78.129 53.532C78.1452 53.5547 78.1568 53.5804 78.163 53.6075C78.1692 53.6347 78.1699 53.6629 78.1651 53.6903C78.032 54.5353 77.8428 55.3704 77.5989 56.1903C77.5859 56.2336 77.5593 56.2716 77.523 56.2986C77.4867 56.3257 77.4426 56.3403 77.3974 56.3403ZM78.2057 51.3445H78.1969C78.1412 51.3422 78.0886 51.3179 78.0509 51.2769C78.0131 51.2359 77.9931 51.1815 77.9954 51.1258C78.0089 50.8 78.0164 50.4653 78.0164 50.1313C78.0168 49.6294 77.9846 49.128 77.9199 48.6302C77.9159 48.6027 77.9175 48.5746 77.9245 48.5476C77.9315 48.5207 77.9437 48.4954 77.9606 48.4732C77.9774 48.451 77.9985 48.4324 78.0225 48.4184C78.0466 48.4045 78.0732 48.3954 78.1009 48.3918C78.1285 48.3882 78.1565 48.3901 78.1834 48.3974C78.2103 48.4047 78.2354 48.4173 78.2574 48.4344C78.2793 48.4516 78.2977 48.4729 78.3114 48.4971C78.325 48.5214 78.3337 48.5481 78.337 48.5758C78.4041 49.0915 78.4375 49.6111 78.4371 50.1313C78.4371 50.4712 78.4302 50.8115 78.4161 51.143C78.4138 51.1972 78.3906 51.2484 78.3514 51.2859C78.3122 51.3235 78.26 51.3446 78.2057 51.3445ZM77.5116 46.3593C77.469 46.3594 77.4273 46.3464 77.3922 46.3222C77.3571 46.298 77.3301 46.2637 77.3149 46.2239C77.0188 45.4485 76.6336 44.7102 76.1671 44.0237C76.1516 44.0008 76.1407 43.9751 76.1351 43.948C76.1296 43.921 76.1294 43.8931 76.1346 43.8659C76.1398 43.8388 76.1503 43.8129 76.1655 43.7898C76.1807 43.7668 76.2003 43.7469 76.2231 43.7314C76.246 43.7159 76.2717 43.705 76.2988 43.6994C76.3258 43.6939 76.3537 43.6937 76.3809 43.6989C76.408 43.7041 76.4339 43.7146 76.457 43.7298C76.48 43.745 76.4999 43.7646 76.5154 43.7874C77.0001 44.5011 77.4004 45.2685 77.7083 46.0743C77.7181 46.1002 77.7227 46.1277 77.7219 46.1553C77.7211 46.1829 77.7148 46.2101 77.7035 46.2353C77.6922 46.2605 77.676 46.2832 77.6559 46.3021C77.6358 46.3211 77.6121 46.3359 77.5863 46.3457C77.5625 46.3547 77.5373 46.3593 77.5118 46.3591L77.5116 46.3593ZM61.9671 45.3539C61.6265 45.371 61.2861 45.3183 60.9667 45.1989C60.6473 45.0795 60.3557 44.896 60.1099 44.6597C60.0713 44.6195 60.0502 44.5656 60.0513 44.5098C60.0524 44.454 60.0756 44.401 60.1158 44.3623C60.156 44.3237 60.21 44.3026 60.2657 44.3037C60.3215 44.3048 60.3746 44.328 60.4132 44.3682C60.8638 44.8366 61.576 45.018 62.4914 44.8974L62.6019 44.8821C62.6571 44.8742 62.7132 44.8886 62.7578 44.922C62.8025 44.9555 62.832 45.0053 62.8399 45.0606C62.8478 45.1158 62.8334 45.1719 62.7999 45.2165C62.7665 45.2612 62.7166 45.2907 62.6614 45.2986L62.5472 45.3146C62.3552 45.3403 62.1618 45.3535 61.9681 45.3541L61.9671 45.3539ZM65.0558 44.5901C65.008 44.5906 64.9614 44.5748 64.9238 44.5453C64.8862 44.5158 64.8598 44.4744 64.8488 44.4279C64.8379 44.3813 64.8432 44.3325 64.8637 44.2893C64.8843 44.2462 64.9189 44.2113 64.962 44.1905C65.6959 43.8402 66.323 43.3002 66.7783 42.6263C66.8098 42.5818 66.8574 42.5513 66.9111 42.5412C66.9647 42.5311 67.0202 42.5422 67.0657 42.5722C67.1113 42.6023 67.1434 42.6488 67.1553 42.7021C67.1671 42.7554 67.1579 42.8112 67.1294 42.8577C66.6332 43.5934 65.9496 44.1833 65.1492 44.5664C65.1206 44.5814 65.089 44.5896 65.0568 44.5903L65.0558 44.5901ZM59.7847 42.3367C59.7687 42.3368 59.7526 42.335 59.737 42.3314C59.71 42.3252 59.6846 42.3137 59.6621 42.2977C59.6396 42.2816 59.6205 42.2613 59.6059 42.2379C59.5913 42.2144 59.5814 42.1883 59.5769 42.1611C59.5723 42.1338 59.5732 42.1059 59.5794 42.079C59.7936 41.2182 60.2246 40.4265 60.8314 39.7793C60.8697 39.7402 60.9217 39.7175 60.9764 39.7161C61.0311 39.7147 61.0842 39.7347 61.1245 39.7718C61.1647 39.8089 61.1889 39.8603 61.1918 39.9149C61.1948 39.9696 61.1764 40.0233 61.1404 40.0645C60.5831 40.6578 60.1869 41.3838 59.9894 42.1735C59.9788 42.2197 59.953 42.2609 59.916 42.2906C59.879 42.3203 59.8332 42.3366 59.7858 42.3369L59.7847 42.3367ZM74.7014 42.1848C74.6472 42.1849 74.5951 42.1639 74.556 42.1263C73.9524 41.5515 73.2967 41.034 72.5973 40.5805C72.5733 40.5658 72.5526 40.5465 72.5362 40.5237C72.5198 40.5008 72.5082 40.4749 72.502 40.4475C72.4958 40.4201 72.4952 40.3917 72.5001 40.3641C72.5051 40.3364 72.5155 40.31 72.5308 40.2865C72.5462 40.2629 72.566 40.2427 72.5893 40.2269C72.6126 40.2112 72.6388 40.2002 72.6664 40.1948C72.6939 40.1893 72.7223 40.1895 72.7498 40.1952C72.7773 40.2009 72.8034 40.212 72.8266 40.228C73.5477 40.6957 74.2237 41.2294 74.8459 41.8224C74.8763 41.8514 74.8973 41.8889 74.9062 41.9299C74.915 41.971 74.9114 42.0138 74.8958 42.0528C74.8802 42.0918 74.8532 42.1252 74.8184 42.1487C74.7836 42.1723 74.7426 42.1848 74.7005 42.1848H74.7014ZM67.7572 40.5746C67.7501 40.5746 67.7432 40.5746 67.7362 40.5746C67.7086 40.5718 67.6819 40.5636 67.6575 40.5505C67.6331 40.5373 67.6116 40.5195 67.5941 40.498C67.5766 40.4765 67.5636 40.4518 67.5557 40.4252C67.5478 40.3986 67.5452 40.3708 67.5482 40.3432C67.5721 40.1028 67.5839 39.8613 67.5835 39.6197C67.5796 39.0348 67.5227 38.4515 67.4135 37.8769C67.4034 37.8221 67.4155 37.7654 67.4471 37.7195C67.4788 37.6735 67.5274 37.642 67.5822 37.6319C67.6371 37.6218 67.6937 37.6338 67.7397 37.6655C67.7857 37.6971 67.8172 37.7457 67.8273 37.8006C67.857 37.9626 67.8831 38.1226 67.9055 38.2806C67.9304 38.2502 67.9633 38.2274 68.0005 38.2148C68.0377 38.2022 68.0776 38.2002 68.1159 38.2091C68.9522 38.4069 69.7696 38.6773 70.5588 39.0172C70.6101 39.0392 70.6505 39.0807 70.6712 39.1325C70.6919 39.1843 70.6912 39.2422 70.6692 39.2935C70.6472 39.3448 70.6057 39.3852 70.5539 39.4059C70.5021 39.4266 70.4441 39.4258 70.3929 39.4038C69.6262 39.0736 68.8321 38.8109 68.0198 38.6188C67.9922 38.6123 67.9663 38.6003 67.9434 38.5837C67.9828 38.9276 68.003 39.2735 68.0038 39.6197C68.0041 39.8753 67.9916 40.1309 67.9663 40.3853C67.9611 40.4372 67.9368 40.4852 67.8982 40.5202C67.8596 40.5552 67.8093 40.5746 67.7572 40.5746ZM63.0665 38.7156C63.0176 38.7156 62.9701 38.6985 62.9324 38.6673C62.8947 38.6361 62.869 38.5927 62.8598 38.5446C62.8506 38.4965 62.8585 38.4467 62.8821 38.4038C62.9058 38.3609 62.9436 38.3276 62.9891 38.3096C63.1191 38.2583 63.2512 38.2112 63.3818 38.1697C64.0572 37.9679 64.7595 37.8708 65.4643 37.8818H65.5558C65.6115 37.8818 65.6651 37.9039 65.7045 37.9434C65.7439 37.9828 65.7661 38.0363 65.7661 38.0921C65.7661 38.1479 65.7439 38.2014 65.7045 38.2409C65.6651 38.2803 65.6115 38.3025 65.5558 38.3025H65.5543H65.4651C64.8039 38.2915 64.1448 38.3819 63.511 38.5707C63.3858 38.6105 63.2638 38.6538 63.1452 38.7007C63.12 38.7105 63.0932 38.7154 63.0661 38.715L63.0665 38.7156ZM66.9354 35.6075C66.8924 35.6075 66.8504 35.5943 66.8151 35.5696C66.7798 35.545 66.753 35.5101 66.7381 35.4697C66.4462 34.684 66.1083 33.9161 65.7261 33.17C65.7135 33.1454 65.7059 33.1186 65.7037 33.091C65.7015 33.0634 65.7048 33.0357 65.7133 33.0094C65.7218 32.9831 65.7354 32.9587 65.7534 32.9377C65.7713 32.9166 65.7933 32.8993 65.8179 32.8868C65.8425 32.8742 65.8694 32.8667 65.897 32.8645C65.9246 32.8623 65.9523 32.8656 65.9786 32.8742C66.0049 32.8828 66.0292 32.8965 66.0502 32.9144C66.0712 32.9324 66.0885 32.9544 66.101 32.979C66.4908 33.74 66.8354 34.5233 67.1329 35.3248C67.1446 35.3566 67.1484 35.3907 67.144 35.4243C67.1397 35.4579 67.1272 35.4899 67.1079 35.5176C67.0885 35.5454 67.0627 35.5681 67.0326 35.5837C67.0026 35.5993 66.9693 35.6075 66.9354 35.6075ZM64.6534 31.0819C64.6179 31.082 64.583 31.0731 64.5519 31.056C64.5207 31.0389 64.4944 31.0143 64.4754 30.9843C64.0297 30.282 63.5442 29.5864 63.0329 28.9171C62.999 28.8727 62.9841 28.8168 62.9915 28.7615C62.9988 28.7061 63.0279 28.656 63.0722 28.6221C63.1165 28.5883 63.1725 28.5734 63.2278 28.5807C63.2831 28.5881 63.3332 28.6172 63.3671 28.6615C63.8858 29.3407 64.3782 30.0464 64.8307 30.7586C64.8606 30.8057 64.8706 30.8627 64.8584 30.9172C64.8463 30.9716 64.813 31.019 64.7659 31.0489C64.7322 31.0704 64.6929 31.0816 64.653 31.0813L64.6534 31.0819ZM61.5729 27.0515C61.5436 27.0515 61.5147 27.0455 61.4879 27.0337C61.4612 27.0219 61.4372 27.0047 61.4174 26.9831C61.1604 26.7023 60.8979 26.428 60.6375 26.1674C60.3127 25.8427 59.9707 25.5358 59.6129 25.248C59.5905 25.231 59.5719 25.2096 59.5579 25.1853C59.544 25.1609 59.535 25.134 59.5316 25.1061C59.5282 25.0782 59.5305 25.05 59.5382 25.023C59.5459 24.996 59.5589 24.9708 59.5765 24.9489C59.5941 24.927 59.6159 24.9089 59.6406 24.8956C59.6654 24.8823 59.6925 24.874 59.7204 24.8714C59.7484 24.8687 59.7766 24.8716 59.8034 24.88C59.8302 24.8884 59.855 24.9021 59.8764 24.9203C60.2462 25.2175 60.5995 25.5345 60.9349 25.87C61.1997 26.1348 61.4664 26.4137 61.7279 26.6994C61.7554 26.7295 61.7735 26.7669 61.7801 26.8071C61.7867 26.8473 61.7814 26.8886 61.765 26.9259C61.7486 26.9632 61.7217 26.9949 61.6876 27.0172C61.6535 27.0395 61.6136 27.0514 61.5729 27.0515ZM57.6209 23.9131C57.5873 23.913 57.5542 23.905 57.5243 23.8896C56.7836 23.5081 56.009 23.1964 55.2105 22.9584C55.1577 22.9419 55.1135 22.9052 55.0876 22.8563C55.0616 22.8075 55.0559 22.7504 55.0718 22.6973C55.0876 22.6443 55.1237 22.5997 55.1723 22.5731C55.2208 22.5465 55.2779 22.5402 55.3311 22.5554C56.155 22.8007 56.9544 23.1222 57.7187 23.5158C57.7607 23.5374 57.7941 23.5725 57.8137 23.6155C57.8333 23.6584 57.8379 23.7067 57.8268 23.7526C57.8156 23.7984 57.7893 23.8392 57.7522 23.8683C57.715 23.8975 57.6691 23.9132 57.6219 23.9131H57.6209ZM45.2406 23.0108C45.1903 23.0108 45.1417 22.9928 45.1036 22.96C45.0654 22.9273 45.0402 22.882 45.0326 22.8323C45.025 22.7826 45.0354 22.7319 45.062 22.6892C45.0885 22.6465 45.1295 22.6148 45.1775 22.5997C46.0028 22.3614 46.8452 22.1869 47.6972 22.0777C47.725 22.0728 47.7536 22.0736 47.7811 22.08C47.8086 22.0864 47.8345 22.0983 47.8574 22.115C47.8802 22.1316 47.8994 22.1527 47.9139 22.177C47.9284 22.2012 47.9378 22.2282 47.9417 22.2561C47.9456 22.2841 47.9437 22.3126 47.9364 22.3399C47.929 22.3672 47.9162 22.3927 47.8987 22.4149C47.8812 22.4371 47.8595 22.4555 47.8347 22.4692C47.81 22.4828 47.7827 22.4913 47.7546 22.4941C46.9261 22.6014 46.1069 22.7709 45.3039 23.0013C45.2834 23.0076 45.262 23.0108 45.2406 23.0108ZM52.7888 22.4464C52.7798 22.4464 52.7707 22.4458 52.7617 22.4447C51.9316 22.3393 51.0952 22.2926 50.2586 22.305H50.2558C50.2001 22.3054 50.1464 22.2836 50.1067 22.2444C50.067 22.2052 50.0445 22.1519 50.0441 22.0961C50.0438 22.0403 50.0656 21.9866 50.1048 21.9469C50.144 21.9072 50.1973 21.8847 50.2531 21.8843C51.1094 21.8734 51.9654 21.9212 52.8151 22.0274C52.8682 22.0341 52.9166 22.0608 52.9507 22.102C52.9848 22.1432 53.0018 22.1959 52.9985 22.2492C52.9952 22.3026 52.9716 22.3527 52.9327 22.3893C52.8937 22.4259 52.8423 22.4463 52.7888 22.4464Z" fill="#1E1E1E"/>
<path d="M140.846 4.82912C140.394 4.91021 139.929 4.86189 139.503 4.68976C139.078 4.51762 138.709 4.22869 138.441 3.8563C138.173 3.4839 138.015 3.04324 137.987 2.58516C137.958 2.12708 138.06 1.67026 138.28 1.26742C138.5 0.864585 138.829 0.532156 139.23 0.308503C139.631 0.084849 140.087 -0.0209126 140.545 0.00342457C141.003 0.0277618 141.445 0.181206 141.82 0.446046C142.195 0.710887 142.487 1.07633 142.663 1.50019C142.802 1.83632 142.864 2.19926 142.844 2.56241C142.825 2.92555 142.724 3.27971 142.55 3.5989C142.376 3.9181 142.132 4.19426 141.837 4.40713C141.542 4.61999 141.204 4.76418 140.846 4.82912ZM140.103 0.70929C139.746 0.774058 139.418 0.947861 139.165 1.20674C138.911 1.46563 138.744 1.79684 138.686 2.15473C138.629 2.51262 138.683 2.87956 138.843 3.20497C139.003 3.53038 139.259 3.79824 139.578 3.97163C139.896 4.14501 140.26 4.21539 140.62 4.17305C140.98 4.13071 141.318 3.97774 141.588 3.73523C141.857 3.49272 142.045 3.17261 142.125 2.81902C142.205 2.46543 142.173 2.09578 142.034 1.76102C141.88 1.39159 141.605 1.08579 141.254 0.894457C140.903 0.703124 140.496 0.637781 140.103 0.70929Z" fill="#854800"/>
<path d="M140.83 10.4849C140.215 10.5965 139.581 10.4682 139.058 10.1265C138.535 9.78468 138.163 9.25542 138.018 8.64762C137.874 8.03982 137.968 7.39974 138.281 6.85915C138.594 6.31856 139.103 5.91861 139.702 5.74162C140.301 5.56463 140.945 5.62408 141.502 5.90773C142.059 6.19138 142.485 6.67764 142.694 7.26641C142.903 7.85518 142.878 8.50165 142.625 9.07274C142.372 9.64382 141.909 10.0961 141.333 10.3364C141.171 10.4037 141.002 10.4535 140.83 10.4849ZM140.09 6.36418C139.966 6.38673 139.845 6.42255 139.728 6.47104C139.316 6.64286 138.986 6.966 138.805 7.37397C138.624 7.78194 138.606 8.24371 138.756 8.66429C138.905 9.08486 139.21 9.43225 139.607 9.63498C140.005 9.8377 140.465 9.88035 140.893 9.75415C141.321 9.62795 141.684 9.34249 141.908 8.95651C142.132 8.57052 142.2 8.11337 142.097 7.67911C141.994 7.24485 141.729 6.8665 141.356 6.62191C140.982 6.37731 140.53 6.28508 140.09 6.36418Z" fill="#854800"/>
<path d="M143.616 5.33795C143.619 4.15429 142.185 3.19065 140.413 3.18561C138.641 3.18057 137.202 4.13604 137.199 5.31969C137.195 6.50335 138.629 7.46698 140.401 7.47202C142.173 7.47706 143.612 6.52161 143.616 5.33795Z" fill="white"/>
<path d="M141.321 7.73234C141.017 7.78701 140.709 7.8139 140.4 7.8127C139.532 7.82598 138.678 7.58539 137.944 7.12045C137.242 6.64864 136.856 6.00877 136.858 5.31863C136.86 4.62848 137.249 3.99113 137.954 3.5229C138.697 3.07677 139.548 2.84226 140.415 2.84475C141.281 2.84723 142.13 3.08661 142.871 3.537C143.573 4.0088 143.959 4.64889 143.957 5.33882C143.955 6.02875 143.565 6.66673 142.86 7.13454C142.393 7.43565 141.869 7.639 141.321 7.73234ZM139.613 3.5961C139.157 3.6729 138.72 3.84126 138.33 4.09105C137.821 4.42928 137.54 4.86596 137.539 5.32094C137.537 5.77592 137.816 6.21449 138.323 6.55525C138.952 6.93041 139.669 7.1295 140.401 7.13161C141.133 7.13372 141.852 6.93878 142.483 6.56724C142.992 6.229 143.273 5.79232 143.274 5.33735C143.276 4.88237 142.997 4.44401 142.49 4.10304C141.868 3.71325 141.146 3.51312 140.412 3.52711C140.144 3.52585 139.877 3.54895 139.613 3.5961Z" fill="#854800"/>
<path d="M139.628 3.24848L139.689 7.41649L140.725 7.46234L140.813 3.2041L139.628 3.24848Z" fill="#854800"/>
<path d="M144.401 6.87255C144.584 6.87255 144.733 6.72422 144.733 6.54126C144.733 6.35829 144.584 6.20996 144.401 6.20996C144.218 6.20996 144.07 6.35829 144.07 6.54126C144.07 6.72422 144.218 6.87255 144.401 6.87255Z" fill="#854800"/>
<path d="M144.667 5.10107C144.85 5.10107 144.998 4.95274 144.998 4.76977C144.998 4.5868 144.85 4.43848 144.667 4.43848C144.484 4.43848 144.335 4.5868 144.335 4.76977C144.335 4.95274 144.484 5.10107 144.667 5.10107Z" fill="#854800"/>
<path d="M95.016 53.4973C94.9784 53.4973 94.9415 53.4872 94.9091 53.4682C94.8767 53.4491 94.85 53.4216 94.8318 53.3887C94.4358 52.6267 94.0957 51.837 93.8141 51.0257C93.7952 50.9732 93.7978 50.9154 93.8215 50.8649C93.8452 50.8144 93.888 50.7753 93.9404 50.7564C93.9929 50.7374 94.0508 50.74 94.1013 50.7637C94.1518 50.7874 94.1908 50.8302 94.2098 50.8827C94.4851 51.6726 94.8159 52.442 95.1999 53.1851C95.2176 53.2171 95.2266 53.2532 95.2261 53.2898C95.2257 53.3263 95.2156 53.3621 95.1971 53.3937C95.1785 53.4252 95.152 53.4513 95.1203 53.4695C95.0886 53.4876 95.0526 53.4972 95.016 53.4973ZM93.2647 48.7384C93.2181 48.7384 93.1728 48.7229 93.1359 48.6943C93.0991 48.6658 93.0727 48.6258 93.0611 48.5806C92.8507 47.7626 92.6713 46.9212 92.531 46.0794C92.5219 46.0244 92.535 45.968 92.5674 45.9226C92.5999 45.8772 92.649 45.8466 92.704 45.8374C92.7591 45.8283 92.8155 45.8414 92.8609 45.8738C92.9062 45.9062 92.9369 45.9554 92.946 46.0104C93.0844 46.84 93.2601 47.6692 93.4685 48.4755C93.4825 48.5295 93.4744 48.5868 93.4461 48.6348C93.4177 48.6829 93.3715 48.7177 93.3175 48.7317C93.3003 48.7362 93.2825 48.7384 93.2647 48.7384ZM92.4292 43.7368C92.3762 43.737 92.3251 43.7171 92.2861 43.6812C92.2471 43.6453 92.2231 43.5959 92.2189 43.5431C92.1577 42.7673 92.1265 41.9798 92.1265 41.2023V40.9891C92.1269 40.9333 92.1495 40.8799 92.1892 40.8407C92.2289 40.8016 92.2826 40.7798 92.3383 40.7802C92.3941 40.7806 92.4475 40.8031 92.4867 40.8428C92.5258 40.8826 92.5476 40.9362 92.5472 40.992V41.2023C92.5472 41.9688 92.5779 42.7452 92.6383 43.5098C92.6427 43.5654 92.6249 43.6205 92.5887 43.6629C92.5525 43.7054 92.501 43.7317 92.4454 43.7362C92.4404 43.7366 92.435 43.7368 92.4292 43.7368ZM92.4662 38.6675C92.4595 38.6675 92.453 38.6675 92.4452 38.6675C92.3897 38.6621 92.3387 38.635 92.3032 38.5921C92.2677 38.5491 92.2507 38.4939 92.2559 38.4384C92.3348 37.5949 92.4515 36.743 92.6028 35.9067C92.6069 35.8788 92.6166 35.852 92.6312 35.8279C92.6459 35.8039 92.6653 35.783 92.6882 35.7665C92.7111 35.7501 92.7371 35.7384 92.7646 35.7322C92.7921 35.726 92.8206 35.7254 92.8483 35.7304C92.876 35.7355 92.9025 35.746 92.9261 35.7615C92.9497 35.7769 92.9699 35.7969 92.9856 35.8204C93.0013 35.8438 93.0121 35.8701 93.0174 35.8978C93.0227 35.9255 93.0224 35.954 93.0165 35.9816C92.8676 36.8061 92.7525 37.6458 92.6747 38.4775C92.6694 38.5292 92.6452 38.5772 92.6067 38.6121C92.5683 38.647 92.5182 38.6664 92.4662 38.6666V38.6675ZM93.3659 33.6781C93.3474 33.6782 93.329 33.6758 93.3112 33.6709C93.2845 33.6638 93.2595 33.6514 93.2376 33.6346C93.2157 33.6178 93.1973 33.5968 93.1835 33.5729C93.1697 33.549 93.1607 33.5225 93.1571 33.4951C93.1535 33.4678 93.1553 33.4399 93.1625 33.4132C93.381 32.6 93.6377 31.7799 93.9256 30.9753C93.9349 30.9492 93.9492 30.9252 93.9677 30.9047C93.9863 30.8842 94.0087 30.8675 94.0337 30.8556C94.0587 30.8437 94.0858 30.8369 94.1134 30.8355C94.1411 30.8342 94.1687 30.8383 94.1948 30.8476C94.2208 30.8569 94.2448 30.8713 94.2653 30.8899C94.2857 30.9085 94.3024 30.931 94.3142 30.956C94.326 30.981 94.3327 31.0082 94.334 31.0358C94.3353 31.0634 94.3311 31.0911 94.3217 31.1171C94.0375 31.9109 93.7843 32.7204 93.5689 33.5224C93.5567 33.5669 93.5302 33.6062 93.4935 33.6341C93.4569 33.6621 93.412 33.6772 93.3659 33.6772V33.6781ZM95.0712 28.9032C95.0416 28.9032 95.0123 28.8969 94.9853 28.8847C94.9346 28.8618 94.895 28.8196 94.8753 28.7675C94.8556 28.7154 94.8573 28.6576 94.8802 28.6068C95.052 28.2232 95.2348 27.8347 95.4235 27.4529C95.6122 27.0711 95.8133 26.6887 96.0209 26.3195C96.0482 26.2709 96.0938 26.2351 96.1475 26.2201C96.2013 26.205 96.2588 26.2119 96.3075 26.2393C96.3561 26.2667 96.3919 26.3122 96.4069 26.366C96.422 26.4197 96.4151 26.4772 96.3877 26.5259C96.1837 26.8883 95.9864 27.2621 95.8006 27.639C95.6149 28.016 95.434 28.3999 95.2638 28.7789C95.247 28.8158 95.2199 28.8471 95.1857 28.869C95.1515 28.8909 95.1117 28.9024 95.0712 28.9022V28.9032ZM117.384 27.4645C117.331 27.4643 117.279 27.4439 117.241 27.4074C117.202 27.371 117.178 27.3211 117.175 27.2679C117.171 27.2147 117.188 27.1622 117.222 27.121C117.255 27.0797 117.304 27.0528 117.356 27.0457C118.147 26.9405 118.71 26.4662 119.031 25.6347C119.041 25.6083 119.055 25.5841 119.074 25.5635C119.093 25.543 119.116 25.5264 119.142 25.5148C119.167 25.5031 119.195 25.4967 119.223 25.4959C119.251 25.4951 119.279 25.4999 119.305 25.51C119.331 25.5201 119.355 25.5353 119.375 25.5547C119.395 25.5742 119.411 25.5975 119.422 25.6232C119.433 25.6489 119.439 25.6766 119.439 25.7046C119.44 25.7326 119.434 25.7604 119.424 25.7863C119.049 26.7583 118.353 27.338 117.412 27.4628C117.403 27.4636 117.393 27.4638 117.384 27.4634V27.4645ZM114.939 26.9335C114.907 26.9337 114.875 26.9265 114.846 26.9125C114.073 26.5233 113.353 26.0355 112.705 25.4611C112.684 25.443 112.667 25.4209 112.654 25.3962C112.642 25.3715 112.635 25.3445 112.633 25.317C112.631 25.2894 112.634 25.2617 112.643 25.2355C112.652 25.2093 112.666 25.1851 112.684 25.1642C112.702 25.1434 112.724 25.1263 112.749 25.114C112.774 25.1016 112.801 25.0943 112.828 25.0924C112.856 25.0904 112.883 25.094 112.91 25.1027C112.936 25.1115 112.96 25.1254 112.981 25.1435C113.601 25.6942 114.29 26.1619 115.031 26.5349C115.074 26.5557 115.109 26.5905 115.129 26.6335C115.15 26.6766 115.155 26.7253 115.145 26.7718C115.134 26.8183 115.107 26.8597 115.07 26.8893C115.033 26.9189 114.986 26.9348 114.939 26.9346V26.9335ZM97.5699 24.4967C97.5311 24.4967 97.4931 24.4859 97.46 24.4657C97.427 24.4454 97.4002 24.4164 97.3826 24.3819C97.365 24.3473 97.3573 24.3086 97.3603 24.27C97.3633 24.2313 97.3769 24.1943 97.3997 24.1629C97.9011 23.4707 98.4445 22.8099 99.0269 22.1844C99.0653 22.1449 99.1175 22.1221 99.1725 22.1207C99.2275 22.1194 99.2808 22.1396 99.3211 22.1771C99.3613 22.2146 99.3853 22.2664 99.3878 22.3213C99.3904 22.3763 99.3713 22.43 99.3347 22.4711C98.764 23.0841 98.2315 23.7316 97.7402 24.4098C97.7206 24.4365 97.6949 24.4582 97.6653 24.4731C97.6357 24.4881 97.603 24.4958 97.5699 24.4956V24.4967ZM111.103 23.6675C111.071 23.6675 111.039 23.6602 111.01 23.6461C110.982 23.6321 110.956 23.6116 110.937 23.5863C110.407 22.9079 109.944 22.1802 109.554 21.4132C109.54 21.3885 109.532 21.3613 109.529 21.3332C109.527 21.3052 109.53 21.2769 109.538 21.25C109.546 21.2231 109.56 21.1982 109.578 21.1767C109.597 21.1553 109.619 21.1377 109.644 21.125C109.669 21.1123 109.697 21.1048 109.725 21.1029C109.753 21.101 109.781 21.1048 109.808 21.1141C109.834 21.1233 109.859 21.1378 109.88 21.1566C109.901 21.1755 109.917 21.1984 109.929 21.2239C110.307 21.9668 110.756 22.6716 111.269 23.3286C111.293 23.3597 111.308 23.3969 111.312 23.4361C111.316 23.4753 111.309 23.5148 111.292 23.5502C111.275 23.5856 111.248 23.6155 111.214 23.6364C111.181 23.6572 111.142 23.6683 111.103 23.6683V23.6675ZM119.532 23.4206C119.478 23.4207 119.427 23.4002 119.388 23.3634C119.348 23.3266 119.325 23.2762 119.322 23.2226C119.279 22.4026 119.078 21.5986 118.729 20.8554C118.715 20.8303 118.706 20.8025 118.703 20.7739C118.7 20.7452 118.703 20.7162 118.711 20.6887C118.72 20.6612 118.734 20.6358 118.753 20.614C118.772 20.5922 118.795 20.5746 118.821 20.5621C118.847 20.5497 118.876 20.5427 118.904 20.5417C118.933 20.5406 118.962 20.5455 118.989 20.556C119.016 20.5665 119.04 20.5825 119.06 20.6028C119.081 20.6232 119.097 20.6475 119.108 20.6743C119.48 21.466 119.696 22.3226 119.742 23.1965C119.745 23.2522 119.726 23.3069 119.689 23.3487C119.652 23.3904 119.6 23.4157 119.544 23.4191L119.532 23.4206ZM101.028 20.8005C100.985 20.8006 100.942 20.7872 100.907 20.7623C100.871 20.7373 100.844 20.702 100.83 20.6612C100.815 20.6203 100.813 20.576 100.825 20.5341C100.836 20.4923 100.861 20.4551 100.894 20.4275C101.555 19.8834 102.253 19.3857 102.982 18.9379C103.006 18.9212 103.032 18.9095 103.06 18.9035C103.089 18.8975 103.118 18.8974 103.146 18.9032C103.174 18.9089 103.201 18.9204 103.224 18.9369C103.248 18.9534 103.268 18.9746 103.283 18.9991C103.298 19.0237 103.308 19.0511 103.312 19.0796C103.316 19.1081 103.314 19.1372 103.307 19.1649C103.299 19.1927 103.286 19.2186 103.268 19.2411C103.25 19.2636 103.227 19.2821 103.202 19.2955C102.489 19.7331 101.807 20.2196 101.162 20.7515C101.124 20.7826 101.077 20.7996 101.028 20.7994V20.8005ZM108.85 19.1571C108.803 19.157 108.758 19.1413 108.721 19.1123C108.684 19.0833 108.658 19.0428 108.646 18.9972C108.464 18.2684 108.37 17.5201 108.367 16.7688C108.367 16.6538 108.369 16.5387 108.374 16.4234C108.375 16.3957 108.381 16.3684 108.393 16.3432C108.404 16.3179 108.42 16.2952 108.441 16.2764C108.461 16.2576 108.485 16.2431 108.511 16.2337C108.537 16.2243 108.565 16.2202 108.593 16.2217C108.648 16.2239 108.701 16.2482 108.739 16.2892C108.777 16.3302 108.797 16.3845 108.794 16.4402C108.79 16.5499 108.788 16.6594 108.788 16.7688C108.791 17.4862 108.88 18.2006 109.055 18.8964C109.068 18.9506 109.059 19.0079 109.03 19.0556C109.002 19.1033 108.955 19.1376 108.901 19.151C108.884 19.1548 108.867 19.1565 108.85 19.156V19.1571ZM117.39 18.9732C117.339 18.9732 117.29 18.9547 117.252 18.9211C116.628 18.3823 115.918 17.9514 115.153 17.6459C115.127 17.6355 115.104 17.6201 115.084 17.6007C115.065 17.5812 115.049 17.5581 115.038 17.5327C115.028 17.5072 115.022 17.4799 115.022 17.4522C115.022 17.4246 115.027 17.3972 115.038 17.3716C115.048 17.3461 115.063 17.3228 115.083 17.3032C115.102 17.2835 115.125 17.2679 115.151 17.2572C115.176 17.2465 115.204 17.2409 115.231 17.2408C115.259 17.2406 115.286 17.2459 115.312 17.2564C116.121 17.5794 116.87 18.0351 117.529 18.6047C117.561 18.6329 117.584 18.6703 117.595 18.7118C117.605 18.7533 117.602 18.797 117.587 18.837C117.572 18.8771 117.545 18.9116 117.51 18.9359C117.475 18.9602 117.433 18.9733 117.39 18.9732ZM105.344 18.164C105.296 18.164 105.249 18.1473 105.211 18.1166C105.174 18.0859 105.148 18.0433 105.138 17.9957C105.129 17.9482 105.136 17.8988 105.158 17.8559C105.181 17.813 105.217 17.7792 105.262 17.7602C106.051 17.4232 106.864 17.1489 107.696 16.9398C107.75 16.9273 107.806 16.9365 107.853 16.9653C107.9 16.9941 107.934 17.0402 107.948 17.0937C107.961 17.1472 107.953 17.2038 107.925 17.2514C107.897 17.2989 107.851 17.3336 107.798 17.3479C106.988 17.5517 106.195 17.8189 105.427 18.1472C105.401 18.1579 105.373 18.1632 105.345 18.163L105.344 18.164ZM112.783 17.0237C112.773 17.0237 112.764 17.0231 112.755 17.0218C112.233 16.9528 111.707 16.9185 111.181 16.9192C110.876 16.9192 110.574 16.9297 110.265 16.9516C110.237 16.9545 110.208 16.9517 110.181 16.9434C110.155 16.9352 110.129 16.9215 110.108 16.9034C110.086 16.8853 110.069 16.863 110.056 16.8378C110.043 16.8127 110.035 16.7852 110.033 16.7571C110.031 16.7289 110.035 16.7007 110.044 16.674C110.053 16.6473 110.068 16.6228 110.087 16.6018C110.106 16.5808 110.128 16.5638 110.154 16.5519C110.18 16.5399 110.207 16.5332 110.235 16.5322C110.554 16.5092 110.866 16.4953 111.182 16.4985C111.727 16.4978 112.271 16.5334 112.811 16.6049C112.864 16.6121 112.912 16.639 112.946 16.6803C112.98 16.7216 112.996 16.7741 112.993 16.8273C112.989 16.8805 112.966 16.9304 112.927 16.9668C112.888 17.0033 112.837 17.0236 112.783 17.0237H112.783ZM109.091 14.166C109.057 14.166 109.024 14.1576 108.993 14.1417C108.963 14.1258 108.937 14.1028 108.918 14.0747C108.899 14.0465 108.886 14.0141 108.882 13.9802C108.879 13.9463 108.883 13.912 108.895 13.8801C108.99 13.6338 109.098 13.3873 109.219 13.1475C109.485 12.617 109.779 12.101 110.1 11.6016C110.13 11.5551 110.178 11.5225 110.232 11.5108C110.287 11.4992 110.343 11.5096 110.39 11.5396C110.437 11.5697 110.47 11.617 110.482 11.6713C110.494 11.7255 110.484 11.7823 110.454 11.8292C110.141 12.316 109.854 12.8189 109.595 13.3359C109.481 13.5635 109.377 13.7974 109.288 14.0301C109.273 14.07 109.246 14.1044 109.211 14.1286C109.176 14.1529 109.134 14.1659 109.091 14.166ZM111.801 9.89911C111.761 9.89911 111.721 9.8875 111.687 9.86565C111.653 9.8438 111.626 9.81264 111.61 9.77588C111.593 9.73913 111.587 9.69835 111.593 9.65839C111.599 9.61844 111.616 9.58101 111.642 9.55057C112.206 8.90632 112.812 8.30063 113.456 7.7376C113.498 7.70086 113.553 7.68237 113.609 7.6862C113.665 7.69003 113.717 7.71585 113.754 7.758C113.79 7.80015 113.809 7.85516 113.805 7.91094C113.801 7.96672 113.775 8.01869 113.733 8.05543C113.103 8.60571 112.51 9.19799 111.96 9.82822C111.94 9.85065 111.915 9.86858 111.888 9.8808C111.861 9.89303 111.831 9.89927 111.801 9.89911ZM115.606 6.55987C115.561 6.55988 115.517 6.54545 115.481 6.5187C115.445 6.49194 115.418 6.45428 115.405 6.41124C115.392 6.3682 115.393 6.32206 115.408 6.2796C115.423 6.23714 115.451 6.2006 115.488 6.17536C116.197 5.69739 116.932 5.26035 117.69 4.86638C117.715 4.85276 117.742 4.84419 117.77 4.84119C117.797 4.83818 117.826 4.8408 117.853 4.84888C117.88 4.85697 117.905 4.87036 117.926 4.88826C117.948 4.90616 117.966 4.92821 117.979 4.95311C117.992 4.97802 117.999 5.00527 118.002 5.03326C118.004 5.06125 118.001 5.08941 117.992 5.11609C117.983 5.14276 117.969 5.16741 117.951 5.18857C117.932 5.20974 117.91 5.22699 117.884 5.23932C117.14 5.6261 116.419 6.05499 115.724 6.5239C115.689 6.54734 115.648 6.55986 115.606 6.55987ZM120.099 4.21515C120.05 4.21517 120.003 4.19805 119.965 4.16673C119.927 4.13541 119.901 4.09187 119.892 4.04364C119.883 3.99542 119.891 3.94554 119.915 3.90265C119.939 3.85976 119.977 3.82654 120.023 3.80876C120.818 3.4986 121.629 3.23011 122.452 3.0044C122.506 2.9897 122.563 2.99699 122.612 3.02466C122.66 3.05233 122.696 3.09812 122.71 3.15195C122.725 3.20579 122.718 3.26326 122.69 3.31172C122.663 3.36018 122.617 3.39566 122.563 3.41036C121.754 3.63197 120.957 3.89582 120.175 4.20084C120.151 4.21031 120.125 4.21516 120.099 4.21515ZM132.42 3.06813C132.402 3.06813 132.385 3.06594 132.367 3.06161C131.6 2.86683 130.818 2.73458 130.029 2.66616C130.001 2.66368 129.974 2.65579 129.95 2.64297C129.926 2.63014 129.904 2.61262 129.886 2.59141C129.868 2.5702 129.855 2.54571 129.847 2.51934C129.839 2.49297 129.836 2.46524 129.838 2.43773C129.841 2.41021 129.849 2.38346 129.861 2.35899C129.874 2.33453 129.892 2.31283 129.913 2.29513C129.934 2.27743 129.959 2.26409 129.985 2.25586C130.011 2.24762 130.039 2.24467 130.067 2.24715C130.878 2.31778 131.683 2.45383 132.473 2.65396C132.522 2.66663 132.566 2.69702 132.594 2.73942C132.623 2.78182 132.636 2.8333 132.629 2.88418C132.623 2.93506 132.598 2.98184 132.56 3.01571C132.521 3.04959 132.471 3.06823 132.42 3.06813ZM124.988 2.87882C124.935 2.87912 124.883 2.85935 124.844 2.82347C124.805 2.78759 124.781 2.73825 124.777 2.68535C124.772 2.63245 124.788 2.5799 124.821 2.53823C124.854 2.49655 124.901 2.46885 124.954 2.46065C125.798 2.3234 126.648 2.23491 127.502 2.19562C127.53 2.19412 127.557 2.19815 127.583 2.20746C127.61 2.21678 127.634 2.2312 127.654 2.24988C127.674 2.26857 127.691 2.29113 127.703 2.31627C127.714 2.34141 127.721 2.36861 127.722 2.39629C127.723 2.42388 127.719 2.45145 127.709 2.47742C127.7 2.50339 127.685 2.52726 127.667 2.54765C127.648 2.56804 127.626 2.58456 127.601 2.59627C127.576 2.60798 127.549 2.61465 127.521 2.61589C126.683 2.6544 125.849 2.74128 125.021 2.87609C125.01 2.87756 124.999 2.87812 124.988 2.87777V2.87882Z" fill="#1E1E1E"/>
</svg>
